<mxfile host="app.diagrams.net" agent="Mozilla/5.0 (X11; Linux x86_64) AppleWebKit/537.36 (KHTML, like Gecko) Chrome/131.0.0.0 Safari/537.36" version="25.0.3">
  <diagram name="第 1 页" id="MSumZThxreS8Mky5mr-C">
    <mxGraphModel dx="1135" dy="630" grid="1" gridSize="10" guides="1" tooltips="1" connect="1" arrows="1" fold="1" page="1" pageScale="1" pageWidth="827" pageHeight="1169" math="0" shadow="0">
      <root>
        <mxCell id="0" />
        <mxCell id="1" parent="0" />
        <mxCell id="0yNXBMV2SDZQ13glMdR7-4" value="" style="edgeStyle=orthogonalEdgeStyle;rounded=0;orthogonalLoop=1;jettySize=auto;html=1;" edge="1" parent="1" source="0yNXBMV2SDZQ13glMdR7-1" target="0yNXBMV2SDZQ13glMdR7-3">
          <mxGeometry relative="1" as="geometry" />
        </mxCell>
        <mxCell id="0yNXBMV2SDZQ13glMdR7-1" value="开始" style="rounded=1;whiteSpace=wrap;html=1;" vertex="1" parent="1">
          <mxGeometry x="630" y="50" width="120" height="60" as="geometry" />
        </mxCell>
        <mxCell id="0yNXBMV2SDZQ13glMdR7-2" value="" style="shape=image;verticalLabelPosition=bottom;labelBackgroundColor=default;verticalAlign=top;aspect=fixed;imageAspect=0;image=data:image/png,iVBORw0KGgoAAAANSUhEUgAAAr0AAAGjCAIAAACucjr5AAAACXBIWXMAAA7EAAAOxAGVKw4bAAAgAElEQVR4nOzde1wTV944/s9D2AlCh8szqGxSLFN0A/oQpCXVNuqW4PoEdTW0GCuiLZd6SS2KK40VwQdtrIiVmrYRLYoVxJZixUuFhyq4IqU1UgR+q+TrJW41LCpZkIgms8Tn9we3BMLNO93P++UfZubMmTNhXjmfOefMOQAIIYQQQgghhBBCCCGEEEIIIYQQQgghhBBCCCGEEEIIIYQQQgghhBBCCCGEEEIIIYQQQgghhBBCCCGEEEIIIYQQQgghhBBCCCGEEEIIPXqsQaT1dVsZ6e7L3Kms+79HWAJXjh0Y/q+1/ZOdx4j/uNPyKPN/vEa4yP4y8k/kvdL/Z+7aaE+EzHP1bDVdbXjoC6Gcot4dHuB4r/Lq/YfNCiGEEHpo/zHwpA5zfRvSPc6tK5ukZB7gTPQYovEi09Rtqwv1bQU/qPKCYE691t5pzZGX1oyo+/OUyyUtveTCcdm8i/da+YWZ6w3dsxo4aljIqw4OPTYb6w0l/3SKmunUc1eH1sr8myW/WmzwG3W2eIzHvrOjV9w2dm4c8/zZH3k+J2uen3NzEIV0svd1ab1QZ73Rb9TZ4jEuu8/4yQ1G24chhBBCT479wxzsEOihXOLi1kubhfF8/bupbbWpXcgngd8uhJx5Zxcdt3pudp3pEUTB1TO3tQDQ2nKs/N6auOdTZXWBqfdsZ6pnrjbZr4wb/63hlz+ntRgBgj6d+MPbTv0UtLUx6bVfNl7sKDafo8zyonsW+Oi5579xX5P8vEevGbWoaqzjBls8gtx87O+Xl/yzn6DBacSRS34hlkFKiz4p5NxWcIsSsDvyIj3sAcZQUVFd12j89Z+7jz9I6IYQQgg9pIeKG+AFtzfe5Lj2tpe6HZ96ux4A4H5J/k3tQu+oFPqg6HLB7a6zh891dzU25hxojxLOfXH54PyX5sWMCt2pOXjbVp6me6qYKo/8l9as8cu6+cucfUy9un7/c2xbSdt5BHgEjeq5+X7Bir/++auOIMaJ+lYzPgTAeFTzvJumbZvD1DGXvn2+UXXGL6G31g+b7N+Y+Z8OxsaCwtZ+Era2FOy+qm2LG1zIN96kXK/889gFcF30glJBWaUM8lYGdX0yFtbkHL+JzQ8IIYSevIeKG4wHLrgfuDCglKW/frBvxJG3R21ec7Oko8ndYfILca/aNxVey7nSkU7f+MXXet9RhqY+ytXSkvT2/0cXjJ+X8l/rz/+StO/qgn19nTo0nbIVN4DbC04TJ3bEDb8b5tqj1cTnNRcPaPnuyKCCBoAxI8IF9mCyD/pgTICt/fd+bUja2FgPAKYWVcLlto3jkwJlcG//1uvnWgFU5+xVHam79VOwXXb+Ehg+uAIhhBBCj0y/cYN9aJJ3eFubvoeLA9j5SMZ8G9AKAJX7Lm48PvDBevcLNlzcH/LSvIVj1mT/klQDAPZRcRzaHmDm+OuN3RJTP0h8Ow88l/pT4Ebrbou6xncXX4TQe/vPD/j83dlNjHvldJzVpvYn+FFOoS8RAL8LmkqCvqGJ6xYqadvRWvuD4UILAEDQJxN/sOg4gLcD77wNAC2755zZHfT8RAcAB5eQuS62z1xjUm1urLdsjKCohIUuxkrNxgK7oLkjfC17Xbr1U9g7jHUCB65LVBRcON5/jwlCCCH0aPUXN9j/LmAqJ9TPrnODa4BHaAAA3Hctv7wRBjPIX9+YtO1mqGKE7ANKtUBvlHjHBREALSW76ys729xdXMPnU641dbtL73Vuqz/zr848ghSB385t3Rp6buNP1xf8NIiT92C7nwIAHCZ7ZX3u0THqYMSajBHt/21tTHrtlwsXAQDqq28dzL8NAA4vuIUEDDNeuVlQ3QrAnDO7J8wn4crVP712ucTU45xstyzNS/NM97v1wIxf/EII1XJwRd0FIOOSxkVxehxo3U8BfqOUn9zbvwDjBoQQQs8se6fNPwa1NgadjiMePBM2ufKTUfP87IByy6oKbm0Mbr3lt3KERQK/UWdvBV//3KW3NxqCPp3Yeitwvc0OgF6Epr/WeuulNWO6tjgEeV9sDDqbQoXOdGv/96bX6X8E38miHAAc5o+7c+uVzYFWmfjGvdQtk/byfDKxtbGzwHYhn77S2vjHH2QEsIeFSJw8uo27cKK+vR7cWsCxGnfJGXHkUvCdAo6vzRDOb9TZW8EXU8j2L4TtsvNvwXf2j+j9jQ+EEELoMRrw+IYxbqIxdgAwMcZ73oEL+38FBwnveubzvQ6KbKO/Pmec5mDnk7fJsPUvBrAnor7kzRvV2nQbXPt7E6JvDnPHNaR72KhEz14Y86c6bV+H2o1fNP7bRVabuo80tCdkX/KX3r4sWNG9H6UjwbAgwTAA8Jg5SratZvcLtHI+CVeubvyKcXhtzJeZo+59dcZvheX7kywHFsC9VostdqFrXgyhWnYvqb/Q3zBKhBBC6KkbaNzgKx7h05aWw/ns89sX5tSdu377u3w7t44EbS329ZV15X+3OKzl9j96nDEkha+UODWVXkiq81LOdQpZ4+3VGVi4kB724PoSZ3OKe/uWVsPudTfP9VWn3teW1P10s7PHxGHi7BE937G0ZCy5PMbtcm97LaKQ33nxSPrvdr2lBE57LAUuI9Zs9Dj43s3Mk6TXV9qSFhj/uosH3NtdaD3pgpOdgz0YTeaOjXZBceM+m+8EAFHfBkUBQEtjUsi5ysUTj8wfZnWiRa/csQhxjNV9Xh5CCCH02AwsbrB3mjfHBVpawcnu3IE69owxWUmGyQn1iyLrO5O4Rvk1BLArv9LM+arPQQ/s39Ece/j1+vtL6prWeAE4Bb3tFNQtjS9H1jks0lh/bmPfcUPrT3s1C/I783fLmtpX3OAx0W269+963X3bcKzzK2HZOTiBsaXXy6ElI8bb3wewq69phNdf3Bx0Zs6ccwAA9sPeCCKh7vrBEusDnrMbBlYZuvKG3Su9rrrYCgC/F3BCfe8b9fdrD1yKrW4PVhw8qJVxHg6llzceNXaFIL824UuYCCGEnooBxQ0Okz3mjWktOdQU9Ka7sfrXxNsuRxaN21x+ZtHRwU9+bLqneueXklHMhToIAYDWmx+Mq9l6s2Nv2/SL35wdvez2Y6oaAyJ8d3Z7mrd04eKkHZ0f7N2coFHfW8xChIa4GM81asdTbr9c39rkuzmJDj1+8aAewHd4qK+ddnd9iYvb5vQXHPZWx+bfBwBwsncAMBo7v7T7BxN+KdG3NgEA2EXtfz6Uc0+rB23JTVVnwOFHhL/v4XJBr9qJ80UihBB6+gYSNxBR7z9P/7M+qdQu6E0AMBdsvLg7gHPu/H2wJ6JSvCder0tKs6jm2cOi1nsF6X5doLQx84FroEvAzdslF3vueUIKlv1ov6zjA9tl5y8vTS89N3pJY2f5HeaPa/+fC9vDBW7Um2xX2AEekeP/VbC5yXc8BWDaraxbuocMGAUH9TAxwsO3tTFpj8H4TyfwcIuaP2Jjfn09ADjZse3hnmUDhr7VbZR906+twHYa/wd70BrOmcF3sptPx7RPDpxhLvYwbJRLqMTeohj3taW3z+kf1VeCEEIIDVT/cYPr1BfiguwuqK4XGDumT9I3xv650dgCwPnPeeGcgMKbsZbDAkxmV98R8yT3v/uq55yP9uFrxiv5DbGiv6me4juE9vah7z8f8OuNpKN9pXIY5+QFpp8u2pzR2S40+nnfZn1S6f0EAAAwnvz7onlQUgng5BY1k2w6WbP7AgC0ZH7dKPuQEzWmfuNFcHjud25wv7Gla1zk+DUvnX7bsOCliwednHw5oC01/KPVXrZm/OaJ1oMqxLwsseVng2rWmdjSB7x6hBBC6IH1Fze4uKxPeZ6+3RC7o8X4atdmYwsAgId4+KsOTEFho9FqOCGze9/NNekesrmXD+60buR/cUT4q/Zw0fBj5+pN9v2NizQadm/oe3zD4LGGBb1Dh6tvbzx6HwAcOC7hc+3aJpaq/0Vf3pHKZ7Ib3WrY/outHHw9/iIZVn/0ZomJbIsboJUpKQUAoOc/Hz6iJWdXQxNnWNArZAAXmhxc5kU4bVzXAs/ZOQDcNnStnHmuoEEb90K4RFtuT73qwBSUthjh/taQkq2dKXBdK4QQQs+SfuIGB75byCi4oLqy+1eAV6332RPhc9wd9HU5hd1HOTQdrS+4yZn3lofv7uuWrxdOfJsz0eH+T3n1FnFAf+MiW+rKN/cdNxDzMoPnZVpv6/MVTAD737vAP24wRrAHsHOd7L1zctv2+z8llE69cLvguLHWREbNJo3n6go4lIxv+O7Czd3fQGV784l91HrviWzD1ozGJiCtS+6h/MsIB2id/sXkqBFt3+19oxE8QoZP3NBS62LvAHDvtsXF1NRnnqU3r/T+x9/dHVoaCk7e953pEWQx75ODB+lhDw6+lGyRk3XcYPrxq8ZzPaeWQgghhB6nfuIGY+mvsRuYxl0t1i0KAAAOgZzIQDvtvvqCngtQtTTmFLTMm+8xz+96UmXHRhe3995ygdv1u7+2aPl/BOMiu72HCQBw73JLL1MuAADAyGG/d7JzcLJ3AAC4X/+N1fgGgOtzSuyCkscrX7x3cEPjq+/5K2fahav+Frbidufk0PeM5qbSX7efBfCzzrnV3s0ZwPSvxiuNx/IMP6lvl5cajHPH1yS7T/e7euM/2Q7Q2vRPi6K2MqqN1yO/85K9CE1H67/T24cv8lVO7vHm52TvzZO7nejmB/mN5252T4gQQgg9Vv2Ob7hfoKyztd0+6i+evq2NSTtsV/Alhfr6t58PlTglVbaPjqTnvxA6Auq/qfvuEdd21u9hDoDDH5y87MFj7pj1R23N4mBvH7Lmv7JiXf7xzbn4/Hv1R882Jv/Xl7EvnfW7GPbu9Z/0ANC6f/MFsG+00ahxsX6ZVF9/5l69ZUtA4d8/aGn97jz4vmUP8K9/WI9nNJb+fXv588rJdv+4YjRCq2pWicpyN/ZTIIQQepb0PqlRnzzmjlkzlag/pFX1shymsbShRG/nO9mtffpkJzIumnJovZ2T0dj0gEW1dZYDf3P3KH23z+GNPdGvkB6thnNap5UZvOkuFt+AExGyyOvIj68eiXP5x77qWcsb6wGgtfVgwrnJK+ruvco7/u2ooLYJLmsa91fazLv1XKl10AAAVxpVXxnqTXYeo4ZBK1Ovs9rpEMCJEtgD2PnG+h9XuPn2tSQ4Qggh9JQ94Dra9aXXVfsY7ebeg4AWQ8nRm3Czpe0p2fdt76gXwVhyffvZbucfsVkTvLnbsfMD78y3+Hjz1z/zLxbY7MtvBeNgh0zaE6FTXeDC5Zh3WmRf/1fUGGjiOL06qrHkVwAT0EEjvK7XfSD/u6rEcjZouPCVZtrt1vVjGysHuaq2xXmHBXjbQUvLBcu4gT1s5UZ6vH3L7hUXjW+PlcleUoc1Fnx9XZXdUH7xvhEA9Le/233VobyXd0ERQgihJ+sB4waoM2xcZgAACOR8u2GE67/A7QUXgFbjnc7O+9bdK2p2t//fzgVMWn1L+c6bPdr27/2Uf0vb5/i+e7dv/8PcVwIbXhyxM2UkDfeNYOclGAathqZ/tu9xCOTM84NzabfOXbm3aOYvtevHrHmT90OVd/1Fw4XLLdob+oLb/3J91WPleOsM7QHApAUyaIzh4GAmn3Cl7Ix37htN4CHmhNJ2xrOGrsGM7GFR6f7rJ9rXf1P9wVeNTV//XPIX7/VRHqGxbqGxALdbLlxsudrQajTeN059YefU7jnXH9cm5eOaFgghhJ6oB40bOl0wgS8V5HLfqL93Lv/XT47bTHT/J9UFv6/sHHrO2dxq+E5+cesjH9+na2l6cUTQiwCtrU11jQf3XM1pH1VgH7qY4/vP+gUZ9wAAbhq2LvlFtZEMfZMKeoV86QU3X8HvXJ3sHRx66b65eX3OtkGVwz48Xaic2vkl3yv4uity8pg5av1Mp6azFxckNDYBgIk5uPHCwW0XJ4pHvDHZJWCckxeHfNWX7epkqzCttzfuwqABIYTQs8zJnn6R8HB5ZPnRUz1WxlLjB7MkpqsvGSImfR9mFU2nYUGBDx0tdRpFbc703RnV68TVHpJRWVnjjuwf92269/q5w7q9kzJ+ptvER/d9IoQQQgghhBBCCCGEEEIIIYQQQgghhBBCCCGEEEIIIYQQQgghhBBCCCGEEEIIIYQQQgghhBBCCCGEEEIIIYQQQgghhBBCCCGEEEIIIYQQQgghhBBCCCGEEEIIIYQQQgghhBBCCCGEEEIIIYQQQgghhBBC6LeMGEkLw+Tpu+IErKddFPRE2D/tAiCEEBqquLMS5UIwuE4W/L5019MuDEIIIYSGAN6yvIpjidje8G/C7mkXACGEEEJDBsYNCCGEEBoojBsQQgghNFA4LhIhhNBTRwreWjBpJNtyk6nxzKG9ZbqnVaLBGerlHwRsb0AIIfTQHvIhlAoWj2049lVa2g8g/O/nzmxPS8uuosbRj6ZsT8BQL/9gYNyAEELoKaMmUpovczVNQAXw3TXqagagqaGuVnvraRdsgIZ6+QcF+ykQQug3iwiM3rLU58wn8dnnH0v+ZFCcYg7P3YsLpLN8Z3rdpfyUjwt7tszzY5Rx03x8PCkw6WoPpizeVkYvTP9sqT9pMuiu1RZ8Ept1KjffAACkIJDWVtYYAMBcm5sHTGcW3lLFB1IBn6ZMumpNnQmATXIouFqYnqw6pR/gWXade+gLJmhRdETIH4azAcCZBO2JjM+zq5vA0G/5R4oT1y8U8GiuI+ivns74MD73pihxT9J0DtvUoNX+vHfVR4X6hy4dQggh9FDIqYrDJw/LJxBPuyAAjiLFiYryPRHcto8caeoehcTbumAsQeKxvLixveRAiFNPVhyO53d+5i3PqyjPjPAc5FkeFBkYrczNUy7kk+0bKJHicHmOjN+Zfd/lB6BjcioqihKFbQcQgpWZ6UsFFM57gRBCCPVACNYWVZzJkXkDOPJlaQqJZ48kPFlekULYWy0/Xn74zElFUNdu8q30ioqTqVMtDxjAWXqe9q0IoWN/pR8vyzl5UhnGtdrqFZ1zplw5qyOQ6Lv8AMCJyCyvOJkiIgG4sxTK5QKy97TPLBzfgBBC6Alg1IcKdCye6A2xNCEGvkrOv9Y9BRXId69VVzO2jgbg8n245tqqys7dhMDPB5hadY3lAf2fpSdn2pfbd5OEoyDuf6I51Z8m51l3wtTpdGbCJ4A/kPIDANQVHFIz5GuS2eI4eWBpyudqQ/+le+bg+AaEEBpqWLR0oyIikMOUqHINNO3K9eeTVds3FY+cLuI8xw3wJ35Mif9cbSCFcZ/FhXi516ZOiy3k2jjk81UpJU+wV/38scLLEdFzVgqS58Wfs65dPUXRbwh8hP5g0sfENOdmFuvM3Q4m/QJ8QJvVWdOSge/FCJmyT1Jybwz4LL3otxuDGyaTeOqPfXys+5fl6EwCECw24Sla0E/52+hPHDu9Qih6b37t4sWFvaRBCCGEHj1SoqqoKFJKOQAAvOV5FaWHE6dSAEAIE4vK06UjAQCAECpOlCtnETYPKc+R0U+0c50QriuqqChSTBn8gAOWIPFYRcWRzNSU1NSUVKUqPT0tMSLQZjP/oM8i/FAhde1jPzc6q6LimNzGAhwTEosqKnKWDuZ9S05E5pmKij3R3P6TPqOwvQEhhIYiE7QyTG1xQR0AwJ1GAzB1Zaf0AMA06JvB390V4AaAGYxmIHs7xJV0B9A+qRJTQfK5RJWGEQlnTCJPFQ+uid5L4O/OlH0cG3+wn+Me6iw2ETwfT2AqNVU9mgf4UwSUWZtfPOCvkOBFrHyl7ic9f2LwbO9dqssPX7inAOMGhBAamswATLMJAACMZmBMRkO/7d7WhzyMioqKPva+/PLL3bYQY6NXizVpiQU8R4HiNUmwa3F+0yBORwn4XNAWVPYTBgzwLIRfxLq3/ImOCpDk8ZypVEHHF8JcK9j6ebFllwQDYDI0d8+FFM39E1dfkvCNZqAXIfrwPe7BhITGGN7ECNFMvmpb9QCPfKZg3IAQQkNTb10MrQM/5MFfUOwZGfSFI173rnNu0i4tA7rvywxTRGIxlf/1wIdWEP4BPkTDieq+BzkO+CxMTXZCTXbnR+GHCu72hNze4hhGc+UaiNzd2QDgKZTM9Gf+mpV/HoQrV4ju5q/6eIDzLhD8peuC/5aWUGYAyC/QRMimhgi2V6sHNADj2YLvUyCE0G9L2/PgMzMrAOEpTtwwvWprWtuQRubUsRM3CMEMySAGBbD8BWNJRlNT23sbySM4S690uV/m3/KTxEwRvxfFVe8vIGbLZOt2xHFKVi3eUDagVhOSH7lF9lzWpry2Hg1tYWE1wwmR9PXK5rPrmbmzEEIIDRCLliZvmfeKu/PvfV4axbR6R698Y5y7+/M+AZwWs3/sMrHPf3pwxvm7/YslWrn09VHOHO+X3Jqujnp7o81DGn8q0957POX0i1Z+nBAre/MlDyf2rTNHq/TAoiXJq8PGujt6+Atf8x/1r+qyi313PRCCpWlJ789+/QVncB7F9yd/PVF54/8e8VlGTQ52Plv8N2OvCZi/nzpayZoStUDAGfkCz3fcy4Fuf01YvOno1d/RtFNTU1/fHiX+MG29PDY6ePRwl9bawlNaIxATZJsWTxrlQo5+Ofglf/LXk5U38MUKhBBC/xYcaUl8qnJHzuEjeekfiun+Zk96NvX3PkU3hHD94cxImnDlS9fGiYbizE0IIYTQ00AK16bLhSQAELzozNKKovVDshql/PjcwTS+C9YWVVRUVFSU5yzlPbZCIYQQQr8xhFBxouJkmoQCACBEipMV5elS6mmX6vEjeNLENKUiRvjvubQEvk+BEELogZjrqio1HH0zA9A+bQTLmSQBfusLOzKa3A1xuU+7FAghhNAQRklV5RVH5IIh+YoAQgghhJ4gYqwsr7wodca/QS8FQgghhB4KwZNlFWXG8LGtASGEEEJ9I4VrM9MjeQQAEASGDgghhBDqFf1WqrKjpUGwUhEx8imXBz1u+D4FQgihB0QK5YpZcPp7vnQ+HwjnVwLgm8+fdpnQY4ZxA0IIoQfCEq5YJ+VRwOOJ2rdodqXhlMkIIYQQQgghhBBCCCGEEEIIIYQQQgghhBBCCCGEEELot+U/nnYBEEIIDUFjI1KXT+fx6OHmW9pLdc2XchNSi5/iQpjct9IzJ+TPjCtkLDbyY5Rx03x8PCkw6WoPpizeVkYvTP9sqT9pMuiu1RZ8Ervr3GMuFouWrpNLAnxod7h1qfZqZW7C1mKDq0j+6YoQ3nBo0NaWfBG/tczwmEuBEEIIDQQhXCkXOT627EmxsrSi6EPBYzvBgFHi1KKKij0R3J67HEWKExXlnbs40tQ9Con3k5wOmxApTlacUIgsz8nix+1SiMgnWIpHx+5pFwAhhNDjwfJ5ZSLXmfXY8h/r7+NoqKqsepBjWRR/hpjv+kjKQQgWSXitAORwqufF3j2dX6Inxk6f7Q3gyJfF+5clJuRfZmxk03v+3AkS0dgHDTVYPv7jSOZvarXlOd35dEOpemi2M2DcgBBCv0Uskh8ZN9vzMT5Y037+lFlbVTmoOhiA4AoXylNTZAKTprbpERSDGBuzgJW7u9IAru6kjSCJUR8q0LF4ojfE0oQY+Co5/9rA8ybpqdGJWxQRvFuaS4O8zE4j+XwOaCutggQiwBf+VjM0wwacZxohhIYoR35E/Fz6bjPj6E7zyOrkJSpN105qyoLZL1Fswjni03SxSZufnFJ449GenvTn03A1S90w8CNocUTMdG/jmcO7E/bqHrQe7oYrjeIWp2Zcmd8MjuRwe4Ce+Z4/Vng5InrOSkHyvPhzAzsti+LPWDg3iNP8c65qzS79Q5SVDHjFB3S5Z3WWG/0DyNpDut4OecZh3IAQQkMSFSqTmnfNSlUDEMJ1Sn/rvfoSVYqZGxxAZa9Ykv84HmwJvmAcoT9VpR3IghSufMnbc0Wezae/3bpqe/damA6VxwQ693Zow4+qtO97rWKpGTL/yoz4Gwy38Q6w3CkK4G6PRGZt1d/04A2MYQBfBEEJ3oiRvuZcV/LN1lXVeuurI/wi5HN8HXrr+rl+bOv2MuvBoQQ/0IcwqKssQjpg0YLf36q61H9Znk0YNyCE0NBkguH/LVeaC05XqtVfbqgd+HP/IzH6FR7J1FZXWwQBFN/PobrGuo4neZIlMSL3uuLsrbE1tt+30B5MSTj4QGUghTFTdRlyLQDcampgWF7OrgA9uiGoIPlcokrDiIQzJpGninuPHUjB/BULJjjUHtu7PlZjMxlTk72hZjAlZNH+fIrRWA9ucBX43FNnPaL2licPxzcghNCQpD+4ISGvjhMUI1dk5uyQCdxsJyMAgEUQj3qcAxXAp0FbVWlRvfotnDvBxmkIADCZjOZHXk8S/KgYgZtg9Wfp6TvSlXN8AJzd3bsXgBgbvVqsSUtev/cnA/maJLivkZgEsADMRlMrY3pUZST9+RzQ1lRZRiGkUGCqHKJjIgGwvQEhhIYoaooQvo0N2waEpyguRbHwDbpwu9ZGOhYQQvk66tOEg4+wqiIEAT5wI7+66+GeFL9FX9ndowAGTW5qfC7Fl76dpHy77vT+vbnnurc60LPkMRMG30/hvWAB9c3idwrbsxsbl5cVQbmyrQY4cMTr3nXOTdqlZUD3fZlhikgspvK/7m2aCb167wb111zBnAhFmrP2+N6sQo3hYfspGABoqLdoC3LkLwhqLkh6ilNdIIQQ+rfEW56Xt5Lf9nwtiM9Ln08BEIKlysy0CF5bxeYXd7g8J9oLyFBFYhABAFSQPH2PQuL50OdmCRKLKsq3iNuf7glKEJNelBVN932UK0+8TKHcIo+YwH3Y5g9HXrRKGWF5IZyIzDMVOTFdRSA8xYm7lNLONIQw8VhFRb+FbMOi+GFxqcrUuFC+jXc7B4ESbykqShFT7Z8E0SlK2YShOW9DB5wvEiGEhiTesvQ4L6cVKDQAACAASURBVL3BZGxmnIezqr7YlK25S4oVB1aPKYiPSFMzAMAVr0+V0Q2aS2cyPs7WMMANU2YuIr95P3KXpt/se0MIl21ZMMHLfywXbmiqrjYDy9l9NI92Bc3ns8IzB/COgCMtCo8I8YHa77OzSrSD770gBEu3xP1ZwBsJulNfLF+VrTUDd1Zi4luT/XkU6LVVP2WnHKDiYkN8xtIUS6/+/P0lezXAoiXrFTIRjyIYXY267NuUlN7HWnZhkTzxgoVT6eazudnfqh/wDRCSL42XSUZBczPDGGrz0zOKrw3ZoQ0IIYTQ00FQglCJ4NHM+/S4EdwpUvEDz/uEEEIIIYQQQgghhBBCCCGEEEIIIYQQQgghhBBCCCGEEEIIIYQQQgghhBBCCCGEEEIIIYQQQgghhBBCCCGEEEIIIYQQQgghhBBCCCGEEEIIIYQQQgghhBBCCCGEEEIIIYQQQgghhBBCCCGEEEIIIYQQQgghhBBCCCGEEEK/TSyK9qYAAIAQrsxUhHKfcnkGjsWL3pKeOGvoFBghhBB6GuwfYV7E2LmKz0TqVeFpZ4H09KHvEY8w88eLFxwyhVOWresrzYTEoi2ChvN1zebue5w9/TnVCdMSipnHV0KEEELoGWD3CPNialTJ2YbZa+MEjuDAAvjXI8z78RLMEHPP5+ae6z+l6S7DmLr/6xlJIIQQQr9JA2tvYNHS9XIJ34ceSUKD5pjy/Q2FDpIt2+XC4WC4pdWWfLEqrcwAAKDZuz7hMlFrYtP2AOZn+PGbECkKUsWulpviDlfEdUulTp225Gt912d9WdqqlOoeUQJ/ZZ6SeizFRAghhJ4pA4sbzNrchCW54+WHd0mZ/03eUKgHgNLCmtlwIe2j7OomACAkyvJEofVREw5XLLPeotkVtkClfSJP58RIWjBZuiCE2bUoTW37jLr8VUt3a3rLgJqdsoPffZsw7jOlobX7qUiaC9UPWV6EEEJoCBjM+Iaa/MLL0uipEsH2lCo6YrX4yqY12Zr2NgXmmGJW1bCOAQ0sf9nOFeztkWlnu452n6lQBpqYJxI0cGclyoVgcJ0s+H3prt6T3WnQ6ep622ns6n0geaKpvs5Qo9paYzttSSGA8/RQifFSaWGN3nYahBBCaOgbTNxg1hQUaKKXBUtmVImDuPnJKRqLjgjmhk7b+WGk0N2x7vRZrfaqxeFGAJPB+MAlZdGiP5HqwmqDxTbCSzSJPF1c071DRHd4Q+xh4C3LE3sOJGeCYFl+Zphu+RHOnFH0cBb0q7lJPYDzIYQQQkPV4N6n0P7vsepFceJlkrRFS8p6f64mA1+hGy9kMEJZPPfEtty28IJwIMDEGLqnpUTLVkoCafhhU4Z59gI/B/CgyfJNsRnV3WMBs07rui5pKXv9dnVbJoS3dN1S9/zk4kFdQncsWpaVF82zusrsBWFp5y026NXZ29R0aKL8T72/qNmqyU1IK+5xeQghhNBvySDfp7ihrq4DIJg7fTXGk8KpfKgsUzcYIECmWC4gAQDAmSRM93o0N4ydG2zcm/ZXEC77aK5BFZ+QkJCt9Zk3d5KNVzgZ7dfJGc1SxTIB2Rk0fKRSP4KqWp8f+3K7V5bk99JzQdL+nGu7lsiWLJEtWfL+Lq0nR7t7SfvHxGIQ8NyHzmunCCGE0IMZVHsDKVj2HqdWbfASiMVU/te9xA6es+dOZE6sOs0wTMZHuZN2JMpKwlLOAjnMmblr6N4DQFw58b91vOUcw6lNm77XAwDJ4bDv1jbYHgbBaPYlfDFfoVgrMrga8j9SqZsGU/yHRQx/LS5d2cAAgD3p5T4clqcrGxkAADbHBxoert0DIYQQGgIG0d5Ah61ewGQkJGeduEH4i0N6abInRcsW+lz6JvsnBgCY8xlp/8v4T/QhAJxd2UZD98YB5lxhcZ2PYCy7Vt3WcEBOnuBjqDxd2+vwSUZbWQs8AVWnrn2iQQMAALAA7AnCniBYbAcABwCi7eOjnD0LIYQQenYNtMYjp8jjfE4kf1TNABwq0UnmSGZ7Z6sud09GiZNWTzHmv5/V8bIlo/44LNwMAFzKDe5U2mqiGC3wd9MWt+2iQsQBhtIENTlB9KKmuGdzAsGLUESxs94Pb5i6LmkZrP+8v26KAV0fJVFWSLo+arNtJareOuvVrR0fWAJ5fiJsW5Jy1lZShBBC6DdqYPWqME7xliFtRXFbtV/9faF2TrT4Db4q1WrWAjJQ9tnqSQ1fL047a9Ed0RZAEF4vcqDh5i0bmQfwuQ1V6qsAAMTESf73SrPO0pJ4+nSPKpngRax71zk3WaU2AOQlq8IGFjr0T1+46s3kn02dn5m7PZKwBHE75UKyqyzuI7mwLk9wr+ugqt2LNxTiwEiEEEL/xugwRXpOUXlFRcXJHFkgAQBAieR7isorKirKi3JUCmnHmwhUkDznZPnh9SKriRMJknQkAIAUJh4+kyfztnEKQXze4XhB+5hCT2lqbqZSIZeO7THIkMWL+DCaT1puIuhQefQEG8MRyaA4pSo951h5RXlR3q505Yfi7r0qhEhx4nCcHwBQwoUysVfPPKiIPeXpb/UyDSRLID9yWB5oeydCCCH0W/UfjyYbFi9CpQg+n7bq8zK95dAEr+icXBmPBQCgL9kQuSq/z5WjniBCpChY0bBiVlqPmZwIijvcEQC8Ij7ZQudOW5JngMC4nI0h7tapSFcS7uq7jfM0ntoU9hGuboUQQgg9IIIcyaV5PJpD9p/2Sepqb+iODFWWV1RUnCk/ma+U2mogQQghhBBCCCGEEEIIIYQQQgghhBBCCCGEEEIIIYQQQgghhBBCCCGEEHo8CE8et22OBi9p6g6ZgPWUyzN4BH+hXDalc4JIQrhcKZ/ay3yR1gSRqfIZvazzBQAcSWJKBG9gXwgxkua1o7mdc14QAlla19ScA0ROkcnnd02wSc1IVC4TDGStb3KKLHW5aCATbpDC6MSVYrr/SyMFb8nE3l0nJydIZTMGeT09EF4CgRcBhCgxJ1FMAngLxeMpACDGiqVC23+OoX+XIoTQUzaI9TD7RImWf5a5XsJlAThyaR5NDrlfZFfRgreFlKljgQlCIPpvLzD0sla4FYLiTxKMfq7X3aMFk0cPZ3d+ZvFkByq6O5MupQAABEt25GTs+Oyzz3bsyctLkbaHLbxJ4kAKGgZ1PdzZb0sFbp3XQwqmBrubGwYylyXhKZgUwOk/wiCFK+JjBGy9rtfFSzu4Bi9YIvYnGfCOUKRE8Fjg/pJkwVS6/1MQ/LisvMQg2zEMe7Qk8X8W0Gzn4Z5cZ4IrXS6fPtoBAGhRTMxUL1tHPL27tM8LQQihIeRRrQCtL/xo0+ScpMS31LHVMJCH2mcNLyJGcCl7/s/tFSsxUTTZrE6otJFSsLYoPbRHO8SUnIqFVhs0GWHh27UAwP0DTTZd0LOJ9q+lFcDMlG0NTzllWYkbb3WEKNpvFod9XidRHpFWMzFHKqSc9u3yogp5R2pd3pJZH6v7uBxCGCX1VKv+omn/7Bo8PaDhdLrWRkpx6l8Voh5/Mn5RRZzVhrMpry/O7Vq2i6ClKQqJJwGe6eVhXamYc2lh0dndZhPnzpgtuFn4RQ2Qs14RjaxSmQd4h1CiDz+KGDtcw/chS2ysXmYo2XtoxkIepQcA4Aj99buT83QABO3lrquutZXh07pL+7kQhBAaQh4obhgry0mhvpBsKLN80Gwq3roGXvzHLcaTAIYx9XrwM4kjjQuFQyvydSRfFGA4fapBNCOY4pDp5RbLa9/IX/LnDWozqDe/+fo2y4OJYMXRqGux89Ot6ipT+6M+6c+nifFxh0vbqmGmOGGxFsCk1+mu9f7w7ygUjtOeSM3PyjmhItyln+ZM+mt4bJ5Fg4Opz9qHRS9YEqzfH1nYRAmmvnilRA1isYCkhTkV0Z1pzNpd88JUl4H5IWFaGdvyaPcwZY7odPj7uQ2Wf1+zoeuUrvzolC2yQFJ/PCFSXtgWJZAT5JlbgrXfFXRfgoQQRMzxqfp6rcZMCAN8DLpjwOG6DyPA0Z3L4TIAYDY2N+gN3RstKOGHO5KEV1Pkh0QfpipbYmMzqq2u2S8uTyXl2gNMFBMECHf6MwCiqRG5768HmqkrZAjHjsCglWE6v+mncJf2dyEIITSkPEDcwI1YvoDnrh7OBmhbb9ov7vCeiG79ycpysfUGplj+x/jjz+aST5R4eQznVHJ8DcNblpQ0oWCxDuZOqFMtWJx7rT0FEbh6//KOaoYxWC9nRRjNwDDNBoOt6sBVKOLfyn4n7MLbRQtrI8MztMDiyaL6KRARONm/7rTqGjBgYFjB/l5a9QadiRhO3tPpe67x3QN3jnwB+1DsPi0hTEz8cHi2xsSd46P+eFbC/zZ3nCBYkS81tVXV5h7XwwCYTc1NNq8HuEFxifFSH31u7IIL01NWb1sHyz8uNAbItmyUMAdj13/fvWeH+0Z0CKX+9HsdsASTAiiKozjcfmvE5R1pi6W02QvC0s5bloCWrE2VCxsyVqzKrWEKmtg7tuzI9Ehe/nFhV59ITVrY5DRgcaWqffJAkrl2LOXDlPzLDIyMyPSk+CknO+8/3deRs1Krn85dOpALQQihIWXQcQMllk3nGIBFPufaETdoMpa+md/Z6us+U6F8TR2bmN/1tMryl22XMc9mzADAnbV6ZRBcOfiKbN1cQRBRsKqQXpRJV6pWne+qOAkzgLnr8ZS3LC8nkrbKxbqfonrbrMi9OgCggqbzrx1KOw9WgwBZhEhRXqHo2lCW/Grs4c4viO0v9Gv4MaOtU4GYIOQ3qTOukdKdeZOOTluS19/DqndE4hL/5kpt8AcK2QThnf2L1cI42bATCcd0hs6YgwAAk6nzhBMSi1QS664X636KUwmvxhW2JTeyCENJcuS2Qi0DZTJQfLZu3/4YhuOu2xe7+PMejfCUeMW7AtJc2GwCYqI4GPJjX91QxgC9NCfnD3v/2JGnJXKsdPX/xImGnU5blJDbJIhYNly9XfWOrHnLlnX79k/O2Lw1+2xnaEIJP9gWQ9bpGFNZ0XDZzj28j+IzqEk+ZnVKyJJcPSFOK5pbOb/tD/Hk79LBXAhCCA0Zg4wbHIUx/93wxb4rynjOcAqgDgAAGIPualcNy6HcTdqqqsvarl9ggmZYYDQ9op/kkUKxV23hz1a/uZRQ/OLfCtVND5ShKwk3GtiePAFP4PxzvOrsLY5nvqpO5zOeLDvXcV0sIExWF2AoSfhzUrEJAIA9XVEUcS02Mr3KBAAwXKrKC+5Ipj+Y8OaPJr3ZOm4wM2Ufz0xoe65luUs35/h3K5KJee73NAlaAxCTgvyby3KrGeAP8HIchzszt+44cnmjBAJz/pIcTcMfTuema5gAHlGmab8ENkGAyaqZvi4/NjxFbQYA4M7dkfPH0+GyLB0AANvn3cwdXl0J9cdT4o+3nYgrEPpTLCApLsMysX/PF469Unxeb/EtcSVrV04y6w0sAOBK5gc3H19c1vtdQHCE0iXvxYjp5lNfLP4ou7oJgOcvme9zZ3e+5nx2bHh1RHxSjOqA5IeMFGW22sSPXr8lhlYnvK+WZIm1easib8qjKE7In/wJlsl/HJFbRvtym2v3dXSbPMG7dHAXcuPhT4gQQk/OoOIGghc1Fw4mqFmrDeDj7kYA9PiRZdGv8Entdxo6VB7clKEqaavdCZIwNvRsYPeSJi4X+bppMz5R+8wJ5rIoepR+7//sdXhjocARqNEc7e5VKSU9nskarsKSdXLH5M5dXHHiCr/iTWU98icF0fELJo0m1NtUdcK5AlegaI7my1Vpp6zy1O1dMm0vkFMS961lVFuLDQCag6qGGan7492/kS3edZ4BAGATbLOJservZ0x3259OjQBgbjbc7fhkkYyYsvpAmrh9GH1QXsVSgLLsXADTHYOhqf3bM7R2K7dJ/aVKcyBmgXexqmm6RAjqpFrC0Z0NAGxnwtEEAGBimN4aumvSwqelwUiJMssr/yOV+i7AuWxVU0TmnoWGbZGxB3UAAI4EG8D62Zph7rbn2cwAgKm5/eoYk9WJCGqsQBDgLwgQCCbwh9/TFOcmzMo5bfSTyhZJ12XJVl+rrq6urqq+UH22TG0QiMY1ZG1TT1rpDnBL/b2qoVIDvWN7Tpru05C7JiHjuNZG7d1UnZ0QVnBMtm558KTfH1Jf43CgYFVMWplJyDlYXHuX0R3ekBIoz6PV2Yc5Aj4Nlb70iKvFl2ydaTB3KTVDvnqGD7fx0KbD1Ow3XnQgaBqOJW+rC44KpoD0pQ25axLyr1kdMrgLuYGjHRBCQ8lg4gYvacyIY5tOGRi/hmZgk6620vCChRxtQZmuYZy7ZK2i4dKS3GsAjs6E/R1T919kUjSPVn+U63AgNekvhlhZQvVdbnTW4XWfEl+sSEi4zPBX5u2YE6wqye3+s2rWFX6UAmvXySE5pUTPFSfK/cqSU8t6tvlyZ0mcv08+9PbRxA0xKUtXJVxm+PGHd4RNzjiV3z1PV+GKlZM1W+fldzz86b9fn8zP3JKyTvtOQrEeYBgbGJPR6hii4w0JtgMAsNhE+0cHy0RMWfKfgzcBi47ZvoPObWtjoGN2Snv9ktsYTueeWiGfycvSCPkkRaadbB+f6Xe4fCVA936NnijJapnXqeSEUx0XejV71SbfzIRt8rrIlJ8NQLDZwBi7DQtkE0QrAIADCwDYDh3Xw7Z8WXFszI490e511dVn1dlJmwpOaQwgSMw/CpumbYjO/tRLGBwiEk0Qzg2aLUifr953LGWR+hZr9iQAAKbhpxMMm8vlAABYjYsEMJqa9XqD4eeU8P6+GH2ZKrY9QCzcEFsIQIgU66ZfX5zdFt2xmZr9X3zx/6RHlwTzLtE+dbVpNivlgd+lhGBhoPbTnbB9pzypaVWkfJeBlKQXyT9zzFoVl1B9lxuxJ0/633R+htWLKoO8EIQQGkoGHjdQ4ih/9ZfxegBoar5jJtyp4QDdxs4TwjkS7vm9hVdBf3XT1qD9qz+UlslydSTpDKbmO90ydIbKgjL3STFsbe4GVfVdABaHQzG1+z7NvswAEJyR7iZDg+0R7x2hgyLQQMKJ5NRimx3Fz+lLj9W8KPUC9e7k3PY8nU2G5u55sriSdeumm6uy6BjFFpoeZch/Pz73hqFsc/wXqsyktZKquHxwJMF0x7KiJqcqTk61zCWzfH7Xh+q/dhaVMTQxwCKfczXcuqY3NAGwTCYA9jCSJNv6KZwJG38E5sqlOu4EX9PnCX8uYwwGAKAi9hwd0PgGIHiRW1YENJz4xl+2fq7PaM6V3eEbjjP6wuS1o/fsWLvidPiGMkc2wVgPhuRI00st6zr+4XJZ16dTHf85nxEZkmGw7IuwiCoMV8vyt5flb+/aoruqA28AALDny3ZlSj0tT9k5LhLganakNK16UEMFWfy4AzsiOASwAMx5FZEAwGh2hodnaMGxTD1SFjfHufnnDK2NPAdzl5LEheMnjOO2DL+RH7utzAAAHI476PK3tt+x3BHQ3NTc8xwIIfRbNdC4gZwiW+jjbvqfdFErgL07hwXNblT3uIEX854YihMP6QAA9IXb9ko+EwhG5upcnQkw3Ole3+mKC3XUfBm3Qa2+CgAAXgJfN93pn3QAAIRAEMCu3q7u9ZnarKupNsyN4FzZXtXb6DJNYSHwZP5u2mK1HgCAmDSZz67+vHue1JxE+RSKYATi12o1Gs2xstNljW2n0GZ/nBH8mVBA5WuGseFu1/O55vOwlz8HAACCF/HpjrgJJACjK0xemtTLOHmOj68rCS/xiZ+rGQBgEcK1RSfXdu0vO2SdnkW+6OluutsMZsb2Ww198I5Zt5RPspjJU021tbXq74tP17RdMVO9c1Puax+JAoiyZpIwGbteffx5w7SXNwAAAMlftmNHJI8AYC7nrlqUUtZ9yAhj0JPSHeXyQOvNyoquN1bbhyVaJ2itTpG8nNLxqY9xkQNlrk6T/PF0fE6iY1pYchlDihTfyBp+1AIA3D19rGy1ckbDro22ukUGdZfqywrLCHEobTqfVcUAAFABfG5jlbqt+4M3SeCmLfgZhzcihP6NDCxuIPgxoUzaO5HqtlZcQqgoUAopd6sBDgRftnYBpzIt/njHT++17CVvZoMZiLHu7ncNzd178QGAEAT4mM7nVpkBACgBn26sSrsKAEBMnD55mFp1ysSbKrxzvKz7lAAA3BmJ8tEnVkk1gg/Xyc3JNoZBAAAAFSjgNla1xSWEMFhIqD89ZeIHCfUlXXnqS1QJWoO6UmvoWYldzV4cnssYgO9MGO72qMBJfoRiSwx5KPesVFCXUcVfvX29w/Lk/J592tSUSfSN2trpW7bUR8YeBjAzxQl/jO+t0mT5xuXmRJCa7K0c5ZkKq7mQ/U5WfAgAADVp097Jtn3NVwvS1pyu+7la1zPgYKq/WBzGGBhiirPDvYYej8mUYNmW1NDm3MMa6eiqjBvBChWsX5VSXNctmSF38cu5AKQnTdRp9SBIzFfApmkbygiuF6m7+gQr0ZGS6FncO4fZXEeCfFfmdz4jsuNlTuauEe421PUcJ/sAdynLXzCWXbu3LWwg/AN8TOfz2+5YvjiIe+lQ4Q1aFATFJTbm1EIIod+egcwzTQqWyTglGerOrl9zQ0MTkO7uFnMnc8UbPlow8vSnyblWdbwZAGC4J4fdpLPxIN72i6xu/0UWBPiYzqvbfpH9pwjImuJSR+lCPnOrx3HcGYnyscXJqcV6s67w45Qq4Wp5kM2FJAhBAG2qac9TMEXAriw+4SiZ3S3PG9XFP3cGDQTF4/MsMmMMDABBujobm6ziCtJPqtizI8YpP/79L6ruAjSdTnl/vXqMPHOX3HIhBgAAFm/ubB/td+tj1+S7L9smFzpbzbLUk/lC2psvvzwtPK0wN3ba668Hv/568OuvTwvfdZ6p3hbW/vH9XD0AMUVx8kxOtGe3w7Xq411BA+nJ43t1TW/c3jvhSpJ3m+9Y/kUoQXRapnK6IeP9+L2XTGDWFa5Z/Ok1oWJPelwQt+fUioSXVLFrm0xoMXGypyRx1/7U0AHMHv2o3MhNeD+til6ReaRIOatud2phW8xCToiTz2DU13yilousbosHu0tHC/zdtNVtTVYsf4Efu/asmgEAFj1p4nDtX4uNf4oQsgc3BzhCCA1d/cQNZFBceu4B5XyB4O2V4pEAAMCLUOxUhHAAxsbsUMlFFIAjT7pl+7oJ+oy/JORbvFRGkCTBAmBxg4Q+pktXbPQ0u9Jc+6riH9t+kblcDqM+3v6aXu1PpVpX8eol7PzdPboqPCVSurhrIKRZV/jxp2r+XFHPyIHF5Y5kykrac6gtK9W6i1a/SxZ+ZZUnQdGCqdLo5YnKXXlFpeVFOcqF47rVfSR3JKm/0V7XEByBdG3mgZ0yztnkyKWqzpc/mbriDdGLM24I12UfTY+XCka2ZULwl66TDjv2xTdaQ40q/kuN8wgSANiuw7kcrsU/irRR3zJMk8HQ9k/f0GwG092G9o8GBgDoAB5bc6LYejA/EBRvglgaI1ekZeYVlZ/Mz0maTXfLlx7FgQZde/DkSIsiFTkHlHMdC1dFxmafb484jIw2Xx4ZexBCNublpcWJ/bq+X9IvYotKRh5cm3LKok3jWm78mgLu8m2KPpb4etT017S6RgZMdXUGvmxdBM0CMlCm3BjckB4fu2qrZmLSlkh++/f6oHcp4cl1vnT6xFUAAHClafuq0223nlmnLtMSr8atHl2m+gHfiUAIoQEjpyTm5KZKed3qPUKkONm+aFNpTlzgs7tmBX9lXsWZk4ez0hXx0dKpfK7FIzThSBAsIDjS9JNFiRMAAIDFi846WbQnUTK2a7VKcVp53vLOCRoIekZc+pHyk7siaBZwZymLSvOsLt/mulYV5coZBAAI1xXlLbO5UCQVsac8PYy02rKrPHNh90qamKI4WVF+Mj9TuT4uOlTIt1ygypEkCACCJ8sqz1vWFkwQgvi88mPpceKudgJqfmb5nojOMIEcK03cVVRelNoWOBLj4/JKT2YuFbQXhSVIPFaUKOw4dqri8MmcaMsr8JblnOi+AAa9NKc8Tdz/PcGT5ZUrJY62do0UyrbkFJWezFNE8F0BHHnCKQLRMuXh0qL0jliBnBCXefJkzkoB+dTv0j4uBCGEUDtHiuvF4/Fo6tmNGQAAwNXmsz4AkOItbZVKeZHKYiFssltyQrgyM/Ut62d6Fkm11auuAtGEAS3G3Ya/NL17Vh1nFS1PlQmt4o+IlETJyB4JCZKy+YosADU/sz1IOZIq8exK3+16SHFi5jqxdaGJjusBYHH5ge09F0SQ4uSZivIjqRJOV0reFKFVx4anRKHsvmI1N0yRuVL4UPcFixZHSgWelnmQomWJ0UKrghPeYnFgn6tQDpW7FCGE0NBAEMSQWxO8D6yOaRkQQgghhBBCCCGEEEIIIYQQQgghhBBCCCGEEEIIIYQQQggh9MgI43LSImjrNxLp+cqcD/t5C58KVeSsFw9iBoOBI2le26RGLH60Uhkx9nGcY8gj/KLTd8QJev8jCWJS46YO8O9DUF68Dlyy82bgRaSmRfdximccLyY9J15gaw9BCwVt82HxZkRL/HqZB4IjSUyxmN6jT8RIuuMLpLtmGCMEsjSF1OZ0Xwgh9IwZ6HqYxDAOh2vqPtmeG4ce0eekOgAOrjQ96sIDla0f9Cz5jrf0699JKDaQL/p4Nf9mJ+MjSIq0tda2FcagN9y1tf1yrc5TET1rrzrP5opTXN6kSfRNi+XJZij/ur57LKg/uGTaR2pg0XM/yVlA6Q0MQbqS2syw8O1aAOC+FjzJ/bTqwZe2fMrYzu4cV7JrkTaC4gkmT3pNOGnKJP5IQ+GaNxOOO0+aEyM4mptfY+NwYrRg8uiGrgVNWTxZbk60l3WijjVCBUt2KKcS+nsMQVLsypSZslw9APAmiQOpbFzjAiE0FPQbNxASZXnnLMI5fDutkQAAIABJREFUZ6J7JFCUVyjArFFJw3ddfcSF65t23wbVhH2rPxBXJf6mVwegJKkFckF/j7O6vCWzPlYDkFLVSfmEHrs/LGpfSLNN51LXBM/X03CrCQhHAgCglQEAuJob+5fsq5YrNRg6FgIz64/Jp22oFCmOrmjWheScie54zubnVcg6UjPF8j/GH2+rhbni+AiH79LyLz+9sMJblrc/2rKpjDmXFhad3XORVQAAIIQf7ldOBT1DEpeylsgy1NcYIIU+Xre014AkLaJks6EtUOP+gSabLujZHfNptQKYmbKt4SmnLC/ZeKsjbNN+szjs8zqJ8oi0mok5UiHtmGpTXlQh70ity1sy65Nm6QfTm79MK7RYTQMhhJ66fuMG5tjq108QQAQpDkTo4heparuqE8InaofSK3dmUgEDYGpb3okQpZ5IFXV/9OcVVcRZ5lmW9MfY721UJNQMueItof9YLtRpauuaTcB2dqeIG2UZm9MKr/ZMr8vdFN9AXdGDP0EAYxrA5bL48gM7fL4Li9xrUWuMleXtEhVHhKkuDyCHARoZkXkkpk4+LaHkoetLfe6SV3KttjhKlCciat8JU2lsHsBoMha//10v1SIAjJj72U5++/95/n6uFDftpKTto2ZX+NcAZkPDNVsrQ3YKEPoZStYWZqSVZLHJEEWOVLsqMsOiMKa77VdNzVixegap+vqptkVczYgM+aazwebF+TuUnnd6LrLagSn7eOaryQy9PC+VVKuvMQBATJgsILmk6qTUMt3ZlLDFuTog/fk0MT7ucGnbHc4UJyzWApj0Ot213q/aUSgcpz2Rmp+Vc0JFuEs/zZn01/DYPIsGB5MBzDRBS1e+V1WWVPybjosRQkNM//0UzF0DcxcIgwnMhuYmg8GiOmlmAMzNBusFpsGsy41bnq1t38Z5I1UZeHrxmkPtj1ssXtRniuG9nEv/fcqSG/IiVYh66zvtNS6LG7EzT7HZoJ2n0nSemhApClLF3VZh2FMRYb2h4xH8aTCov/kcDJeeTn1patHrb9jslQAAAFZzZ4jF+6PQuWzDtC84n6m4GSEJxQwQM5T9ZU/whf7w0/pqhgGGgQB/H4M6q9pEuJPMDb3l7QEs3ty3JzXkvZN7rde8ngQzY9B3fhuE/0j3W/rn3jtQEeFlmSi1XAya7WHhGVpgGOs/GzV9lrBhX+TrW7VSVVHIT2GR+4joXdte3JevAwBXoYh/K/udsAtvFy2sjQzP0AKLJ4vqp0RE4GT/utOqa8CAgWEF+3tp1Rt0JmI4eU+n7+ps0uZ+li/dHiP9qnjXI4xoEULo4Qx0fAMAsL2je/ZTMKd6JmQMN7S6zqqiGcDcrLum64gbqDsM9BY3AADXz58y11ZVdvx0m2/VNZjAj+9PgqZjxWpgTm99Jyyjs+V5dMS2DS8eil5f3PWbSwg/3CM1DaQJ4vG4qynca7s14MGQnnyapa2+OtAnT4Ik2b10bZg6t7P4kqnOZdtO6FsXWKXo9oe+mh0pTavuDAjs6UmBRNnW6rZP/kI/qPy0CkRbDiysmmfVV0UESiW/r8r49lF+Dw/IlaZBq20CAC7NYdcdKvji84K97PadPu9mKlx3z08tbTbogcWXH8iUti/6lV4RCvrzGqNnbfamaoCOTgp3Drtyd0YZAwBU0HT+tUNp58FqUCOLECnKKxRdG8qSX4093BmNsP2Ffg0/ZmgBAICYIOQ3qTOukdKdeZOOTluS1/UnZs5lH9JIQmbzd3V82wgh9NQNIm4wXd71juVDPwBvWd4e70dbHlLAp0Gboe4MEVj+grEkXKqusqoxGf01becjJDluuHNDrVqj1XaVjfQ3A3Nv8O27LFqyXiET8dpXR7yrrz68aVVqsR4AKFHc5hVSP27bMlfMedU77+zSmAneWwrFu5NoVwIAwKwvXPNmwnEDOEqUJ2S696elnAVg8WR79kSPbUvA6DXHtso3FNYBOEqU/z97dxzVxJU3jP97nvTc2DwOL30nlN3MS49TfTYpPSR169R2g7SE1o3a1bilscVgRdKiqaK4sKEbkUXMVgoVQRthC4urSNssrpGqsGyJrCUPtZHXEn61ZF81/NYT9mVJznIYD5L5mXN+f4RAEoJAa9tt935OT4+ZzNy5cxNyv3PvnXs7i+STtbif8/aZS35ZaYvWUiDR7C9feGilwTpbCwZr1j1lBlJT35n3WNQd3I2b12Y91QgAAI7KnCz+EAtiCBsIOdC49bW6QIcUWrqrYXtkEj5ugWQRCZe9wJMqlsfYj3RxoIiSZzlD/NXcMd/u+Xi5clF/26WwUiDlyoc/b5v6VswPkm+vNdIf5Gyrd/LFsgS386qXG4HJE7BjHNw/Ojzk5QAAHJWbnzHx6MzDDWqX4YVye8yTWu3/6uolacIz0Y9APsi3n7EEvmze04YX/tvn9YfHDX7O9ubzhsAID55Q/VaTLCJHPm7hD2kCXCyg5FTZqM3s4EAK07nbulxaRTLNc7ju0m2EYRj2DZpH3PBNQNKkR5H7gsMVfC3emL1K4DD9qs454+8mki6TgPO8N0mjX+o0NdhZAAC0kA/c+Ly7CVCKdpd8tC57ZesQAMCCR7VVZboNf7SaroP4ZZ061m5QZwUiGM7Psn4AgUK7lfH8LmfnOfc4AADHsdOCFb+zbsfKD3gIAIBPbfhN7e4tbW377QAAfq9F/7IpcDNJyLRvG/NePm87MocbdB6d3dQz1SYwZi1IKwiJKbyN2Y83TuwpL/rQuODASsPF6aVBZZa16JImXpR3KwFc5pOD4PdNdUix04664zxxpGNdsZZpKeuXb0iLtZv6AAkWAABfQCCBDwC4MQ6AlIjjhj93TFTPBJNdkJm8BNmrTIPyDUwskLTI+W5+5cVpUZJnALYW6wUlZRcm3qKURbuSrAds07I/1zQ525GSjvqK8mL3tj+tkHC9H1wDIkVfnmIv2B9l6AA3wnIJUmYJEAmbNpy0mtrKDLGqmg+1Xem5gbJ4+PldRcAGusBQSuGpSuVEQ0Rqc882AFujGcB3i2VHJoqOvRNxBp/9XZPzlDZzsdU0slolB/vefiQQ8gGAHxMoQPBxnB8AwN33BfuKRMYHV7SHZTAMw755X0c/xVdAy2SxsCBRXV6mBh6fIBA3ZDdk1tsGZz4EMYrlhONdm3tkHf2KsfDmy4aPvMCL4d8Po7fHox4g3dnSszN8m38iUCHiSf6I0+H0egO15ie9g5BGPAAAEEMg8Dh7B7xhlRKKIficy9nv9t4tRuFG2OBRXvs1NpMkJ5/641jvRIreLvs1X9qDQgTO2eMdv9ucPzWIBPyjw+HHUKmaVP+Fxoszj44EAHCf2PGMmQcoxXjqFVdBoI0hxah6cpaTc1csbbcPK5lKkDMkQRad7y4CAAD5ic5sAPA7KlVZjUMUJYTBCxMZoNaqYs6VnHnlbFGptmxbvuE6Jy1oqU1fUXfREllz+91t+8tgT7EeSsoueCllkT7JVlIepRVmHmmO2Ep/+U5NfXHDUh9yHHBwwLrc/H3azD9Yo44tFT+/mhph2RFQlub1bi6ziZNE3n6HByQAANBr61uwM1nKszv8wNlKfpZ2AHi09mgtbQ60MdDa36qjJBqK7TJf3KV/XnzCKZcSJDE5LjWppXs3QGi/xuCg575HyAcBBmZJEsMw7JvxNfRTRNwKA0R5nmKGU5BLpRQ4635VUD/nkXSkckOaoOvABRZGGkvfTT65e7fissHKEjECiHLrDwDAOU/ml7SFjF1/SF1ePNWQjBI0DZ+GjrD0Bh5m6D3b5jqc996JZLvTdeNab1eb1TkCMNJhuagt/k0TfcXpGvjC+cmF85fdkbW+SFlUtnu1mESTXRIXF8x0OXOePCl8EEkkgnnxddVVe2MwqkMCgiAmgwwfG3zegWNZDoCMJfgjwze8LAuA/ADA5xMEEfigQ+Y1mOJ39btQ5uI4+8EXnnmLZTkApKz+S/j4Bh4fIeB8Ex/BQu/H5/seVi8C++9KzNc5ACSKj/Gxo9FHoARDB+MyloCOkkA/0TTzS/N6o+GA7D2jYvCPThYAbp45YdtUuFFet3falxEx6lRPhw3J/cdNhC7zp6TnB7IYp6nfPxE3cJc/7o3VJi+qdFwH8HPsCAc8YmEsO3zTy44A8Hw+AP79wQLnxUSbe4O7cW2QWv6I74jhZ7bA95TUHDsbMb4BAGCMHQUU872dmwTDsO+er6Gf4ss/T4FkSyVoqNV+l9aFCAJGu4UZPZdrHQEAcL9faVYa5VLC+gkhFPiizoMEAD7PgPNq6I14WFsBd7Mx54WQYYCT2/tMGS90yJ+USZaIJWsKtRvl+RmlNtbbpn++b1kykygRL0neUqld925W1nFX6IHMlt2ruQ8ynqkPNDUze9qrv5bpM0PwJEmLYPBcMBv3EQpj+9QAhOv1GWHxH5ItodEPZUx848RUAYs1DR0hkdNAY1ji9yEQUBIR32cfhbHooRkAAPg4PyA+AeAFAGdbG4h1sgdcVrsXAAAlr5DyHUfsM7as+N19DnaDRnTjaO9MT4bMN03WxwGA+OdaRbPBOsJ2tXwMv1mdjGwR8y1RL2YzLkvpiFZOeK0Ht/WxMcpaoeOPIcmO2e3XihUMCdeDWRNJHokl4MdSdMnBAQAPyfe0d+6ZStN2JuwUwCMeThD6xkbBP0NwO4mP+MB9iwN8MQzDIswWNyRkN53STc6hO+O8TwCuhoz0I07g7Id0BePXXFNVccTzFOA+pE1H03vNYWIIJOfs7Z/rEDBCvrNIJbAa3g3+pvudps3p4Acg4ghi1OW5149Bep22c04bABCq6nadQgo2GwBw7stW92UrAEh3t9Qq5ORxV0hVh6gHieFrjm+0f3qpgolHMSkK4lwbCwB32La8qOMbAhmUyZfxXX+ndlfmeXMqe2F6YBHuwcyGTh09YDl0397OHkXodKHyUxNzP7mOZ6RXuYe9II8XQnAAIrmMof7Zax8AAEDyNDmyH7rok6bKvRds03tTqDVF+iUd+Won80ax3j811iHCfNKk1C8pkM3cRqsLd3fY91rZK2dMjUKnH8KiuFjlro3Ctnzr6HNaAOCG3G6xblWCo/ECO/U8BXh7r7p1STL0/sSQEjIlmR7q719dUfF/s3JbAPyc1fB0QdsMBc57JM/cpCGcjQdF1Z/2hM3oldQ5MT1XX+XKzY1eABBRJHgG/xE9JQzDsG/ebHHDzROb08wTD6wRknU/F7vOnHGMAACS/HQVde1Cx/XRwJu+iRZp1n11lmF97NAMne4JUlk89P+hb261PRJvLDeuhfP6A9bQYfaB2i6BFoH30/n/2rJDXh/JJC+l3K6JsRGcPzjATUAQ90/MCbjgUbEIxl2jAICIWGKiA+I+oXRRDIzeCs8/5/4HG5eYzCTcuDEGEGj4/3oRihfTYi5bbEt2l29y5b4/y97kc+q0+6z7dh1Ee94zGt07Ppot+cH6rCfqAQB4qKMt+Cwjf1W5Re3cllMXmJ5rjAUAR//w64kyEpyB1gBmKe3rO9HrBwBgUhj+FVOHQLVL6iq7EHkGak2RPtEaGNPQ9mYZvFGohwPRQod5pEkod22Sus3ZZSfiY079Rpf5vtV01WFpAIDwuIF12f9gar3KiZ6b2CBdo4yxHeoIf5TD5XRxicI4ADcA8MQb1klcf8zIvbyq9lCV3ls2yxfY/0XlC49XAgAg9MmZiRLkiTIPHWP+nJHb4gEA8E/8OVGJkrib9i/woEgMw/5lzD5fJMdynICSp2/RalZL2K53/nLGdpMFJKYfTdP+4vUtVyzmk41m27RO/XnhiTW/yUsTS8Q8YNftr46pyz9iu2uCBKMtN772sOOtnLKLU+28SEDAHZbjkFjBUP/sdc5/wn/uYt2hi8Zdh1uyg7V78HlLEG+oPrZdOrF5zOtoOXC8D4BILmwqV8ZP7MsO2N/59fmIhmf77w6eL9tdbdFMBQzzGUyKYklCsIC8fwHwY+JEFADA/QsRICKeokLP5B8dHmI5ACK1cFeKx5xdavKpqw/Vnn26f5SAQTKOQO4orTzxysLXmf7fb7SyXthveGQPI0QAPEIoom6FtDeM+0a93unPiXCTjwwAGuWAGx3xsiH1a/9/29m1yStIs8ULwKOoeM52cqJlqN/2sesVReGrvZaqad0KCSo1bZ0aCOl3t715iNu+QeEwRQ5zmHua8cq9uxXjLVvrrgJ31WT6g/LGQLSyBgC/09wQFvg6jmS9TERePGc1PP/nwPRQSLqtWH3/ecMHLnbMVPAupXuQ8ADwY+MoUegR46Me77Ty57iRyTmmPKN+8I152JHQU5GpcsmwvXLmh4kwDMP+1cRK1XtqWjp7uj+sKXqJIcOnEkLxjLqgpr27u72+SCWOfh9NZTV1H9Pc4w59kar8VFORkoo4Jbm+prsnoLNh0/djeUGkrAhe0919WqMmARZnN3zc3bQt+GEgWrHNWHOqvfvTyN2bt4sBMXnm7vZKFRXysaI11VHOF+ir4ol15vai6YtfAABSVndPW8wJSfWW7iYt/TUVzVyRcn1Td3dTnjRydCEiF9H0IrGqrL29WB7xnnhnc8uekEUyBQQRS2fXdzdsDPsuU2ur2z9uzlsW8k3kiXWnppdgd/UaBADy4vbm7VG/maTmWHdNevgqcYm65u5m3ffji4xh2L8NSrmzKHuNmJh5XSWUoNDt1EhnWBeTXFNU88bXs472dDyCTKDFYpqK/c4u6vxVEdJUJkpp8xBBklQCNfkfgQAA0SkKeu5FxaPVFdXZSVHfYrIr9MF2lylkenVnR7Vq2vZvEkrMrjbp5VHyQKpru3t6errbm/SpkV/fiLiBWFPd2dPT3d4QefmxjGL5PL7d0m015S9FDaQIxc5yXdhCpJTa1NlZ8U397WAYhmHYt49Hq43lmsTvYBiHEPp2cy2QZpcZVaLZd8QwDMMwDMMwDMMwDMMwDMMwDMMwDMMwDMMwDMMwDMMwDMMwDMMwDMO+WxC5WEzFfiOnEkmZxVNP3hOLpOIvc16SWa9iQp7vRwliKpDqInV5rY6Zee6KCESSKnv9TDNZfBOI5WqNPGQ6LCTPqzeqRIh+TExGXgWl2leTFzGJE0+qMRapFkVNG0k36XUpk7MJIPnOav2zc5pcgMkq16+h5rAjkm4s0r8knf35RyRWbVNLpz5rJF2vUz/2LRY8hmHYv4v/uPdJ8iSb3j6mT/kGHn5Hiq0V1b9WB2skal1RrXFLZK2DUo2dEXP3madW6gIA4D2s3KJTLpp8TSp2Hm7Yp6J4AAKKFtN3mfMqQszSddqfM8IZ3iXiqdCZl2b8j0QAADxa1zSV5fZ9CnFWU0+k7vJnQy+XSNuoU/8ktC4nRItpESlTbDt86kSRanHotIYLRRIZLZzYIt5W07STAZ7wkScZOmr9G6vIfEVOBtfFBsQofroI2JnWqgyFSGkys2Th7PslaQu3rxB6XLPOWY6e3KRbLxNyQK4tqtYyCPgSZeYqacwcMoNhGIZ9JV/DOtqERBw/7PISRGy033/Ox47do2Uq41erUpC9yhJcJst9ptG6aY929clcy1D4nlfr07PrArvxFcYPtwAAQIK6vJSyZFfaItP1tu0/sKJpb9FL9lwH3LPwhyfVmho0i+aw5+RaiH63JX/joSsx68pOpjmdtxBwttKV+ecnFlW+j9Yeqw2belC0TikdPHPQEVK+HOdHwNnrc15wZBUq/ouYWvo5DPHIIzLf5UGAGec0Fmu0zLXGjZcm0kZPKlb47YYrUfZk9rTXrJ/WDpHS1LMpbIOzLj3jaMiC4yJl8W+yxQjEZZ09Ifl3NeSkH3FE5FaxVg42Q9cYYpatEI2cudfLnmIYhmEzmlvcgBhdRbZiiYx6gHU7b3hGHfX5pmlrBwUtoUWIYqrb1VHfvWh4Ki9ygWFpVrXuOYmMJnxD/f2urnp9vZ2jVPvKt6TQcf5h1+dnKvPrp50OMa9ukY+0bj03VRGyF+uODzTpdis69NbwhYh8wAUXELozmYCQWiTi84JLaIYasR78FTz892EuAQHH+Wa40PnxO4KrIE5mQFHeXjhqWFk6LXKZxLEs65c/QTtaf+WGtQD+cd/khUzLtvjnKsmVRsNA6DYf+BGVpFAupR/5AVCSVdI/Nzr8AAlypQgAgHjWWE6aCt4XJUnYwdPjxAMxiAcLHyAnYr7JIE+kzlsPZ3ZZ3IRUsZTtuuhRrEkjRURNt2rqVEOWrT8rtfvB/tYLz1SFXWea8eyWm7kba/rDcuYLWZBMrK6oyJPHs/aDWbknA+0NSKytrdX4LGcjggaAxepNywctWhvHkz7xKOH5I0uJRAQf+DFkYCmpcf8oOxR1pXYMwzDsq5pb3MDZTbmDo8da8m5ZCrJNrruuzkcuoeOumtIz61132yuMoyG3gK1pf0PU+uusss8C29yWvZuHi2uTz+WUXY5SBaAkbd6aBdb9dWHxhN9lfvuEqr5wr7K3oG0uTejTJOW1HNNEdMVXdyvDN3BW/dMFH30zFRMiUldLHOcNXogBQCnGv3QXT72HwDr5IlapXQ3mfIs3QVNdRluqnGlbVOIEEU0S8Iu9STddA64brv7BQF1NLNuglXTZANjrLurnGvnVWwxJUhXtE9dZ2T4RDkwEeaRyp1Z0saSgjxNv37t3eWuOGzYsHzRl5phvBnOyrPC9ncEAi2PDK2007geOG2XZaStqAgCQTFZh0ZZk7qOSjI9kRmOV0VdgaB6UbDJWZJO2oqzGgYj9CeVrG+jrxwucAIuTmQQk3t3cshsAAJIaWrIAAMDblvu84e4LqmIYhmFfzpz7KQRJskXg/ZP97kEDAJIkPsxeOzH3oCFwlFQqQSO2rqsh23i0LP5GlyPaz3+sXF+aKbSV7DgXGRxwV+v2nUyuLTRq/k9u4/XgsYm65h7d1E7X62fMiLNu2wuWyb4J4fPG6p/Yc4ssnsmr5sl0R3XcXeokfowwgQp9f5wd9o7McAAPxT1IIbjLKuR8eYr0xuUSFiAGgLtoeHqytYYn1r032U+BmFe1sit1B4Yo5U61dMhUcpOjPztvP80xr+vg4ErDhbAzCCkh+389PgBwtZ731mq3j8dcMDyT38YihbF1l2fX2sq+qZ2ptYW7U+HG6Sd0xRuYVNSa30a/1kBfMeVfnQoEkB/AP9UwI97e3JQVvnpTeD+Fo2pt1vFAxxEH/wn2qs1lzU4O2nL26g/vO9asHo77IXe+aFvpR5GfL1q+S/csiS5xowDiVQrRRcMz+W0sEOra9lW29GCaGIZh2NdlznHDj2RiAdd7pXeW3Xi0TEK4zw4QxEyD233s9CZknuSJRwnuc3tYkCCUSVj7iek1aiyjO2RUxfZW/r5vgYiaPkzfe+adE8uMeYcrbulyLQPAXSxZuaIEYpMzXxLa37X0+wHucNxM0Q/HugemakMRKfS5enuvh4zUQzTHg3HfjBU9WqypsWhCt7hPZq09OK2xfQIh39Pc/JzZ9PY7bdejpslaf39GW6qTt5QOzHRKAIhX616kSZ6xXQnAOU2aNu8g1B8FAHLhi3nJJB+AIxKk0qUS/udm63VCvHjh4DlPIHdn3qqTVerYP9iitgYAAMQSMOThJ4gZMRNzqcB0eViUYDENuiWPEbbPggfxAPnCCoW9YPjZXqsPAIC/2tiuuZmbVdPrAwCIU5ua00J2tB8psAMAAIqXrlhKIUBxP4xDfnfMo4y0b9gxFJJqrKJ4z+oFXpYDgFjFprUxHSXWGbONYRiGfQ3mGjdQS2UU9JuvzNb4K5RJE5B0Z0vnzhl2uNmY9UKlI6LajpdKE8B11h5aB6ClMvjcNL1WQIsYRuAwtaC8Yy150c/hasw1NK5NHr0NAAB+jhsDWCRbpRT2HzHfrakgAo9+Qkq4/uik1+vTRupMFwL3vohA456xGQ/irpoy5t5H4/daq0wexS5j4yrV+wdKj1qntzxwfXWNrlMbVpNlACjF2N1jDH1zop9i6IJp76Dv/7DMr8pXfV554joAACJpmZR5JBZJXmlo2U5RBLA3+1urWq0DEmbJ4BdXfYHHD9gRj8d5puvCjPWv+/jWlceBSCk6uYczHbSyAM7TJs+a8vcKhB/ocuqvcgAAfMT3+8KiMT/nG5so7HEA8I8Gx8OOh43MQCS9lGF+LGMekzNLKRiwninPqGsbpNfrdJpdDZv07qv2vqv9Xzh67Z/YXI+mJXGWg3+kixmAMWfH7w+6PsG9ERiGYd+oOcYNBCOl4abZ7pltxyHz1qfMM71Jbmw4+9ywd9q9PrH0CQm4zZfDGpllS4n+M1GanbnPTFlqAID6gwAA4u3Nx5LMz+eYJ1q0Y9U1rapRt61ebwMA4EnzzFNPMUyMVPDby1ZtnTGXk8RpcpGr1eb2PCpU7TF6rm013wQQxKD7bvlmjhvma/S6pex4R+tLhXtfL29OaassOmC+GlGFs3aHW/eoBP0NOFvp03kfq0zvyd5/3nCRAwBCEOhUcdvb3FR69QbiTH6NnQNg3mipSae4Ebfbx/G9dtMBQ5/DOcwjYIQF6DeX19/ywLpA8kPWsrwuJEBIAIAQ4gESEEjgAwDwBRtmYuW7dq9wHnx58kEV77l9JdKGirJi12aD1QtwPx8433hYthF/YiFq/gIA4PGD61IvCN2JerGiaSc97HT0XTYfONJq7fNyi3XNXZK6p3O3NldSyxTK1DSGUb2+OvlEjs108eBOFzsqrwYA8A/3ftS3ID7Q4LQwdFwkwPj4GDtj3xCGYRj2FczxeQpp0qOI/eTT0MENVJJ0vM8xr8GHQiEB//QMT099mQSx9l5nyDYezfxwuPfarEkSskRq+Fr/VDYIIgZGpzre/Y53Mp+p40HM2vJmRVf6L86MijJr6yVzaHVA8hdV1NXjbQPgHThwMPW9wjfUNp3ZTRAx4Bu9Nevh88I63jdk2D7O+02hdou8Iz9ySOc450MCAgDAPw5+r/3X34XLAAAgAElEQVQzj+pRGi44iWV5tXuEdZsN1hFAi7P3b1tkf9ciWqtbleCxmvdk/N7lHGTJjQ1nn3P32ZxuQl50rDjm3RcKzrHOi3bghTxy+Vhec716qsfH1KkGAOBse5/OPccBj1IVF6/2956gtcYKmn6ItewoMA+xtrcK3jE17N2j6s2zgIAA363QQiWeNXY+G3oRDd0bp144/jLxD/cfcp8/zXqjx2Gc+3Jb/eW2egCYeOzF67oJE494ijIPnwqfh2NyXCQAey535V48MhLDMOzem1vcsEQmi+X6r4QMPxDINS9SdX1h3fYoliT4M6QwxnpZoETC4cHBab/mlGQJyV3r7Q19QySPPrghQmxaciJrfz/kAT8iBt3hRkPu2LkxlgOg44Wsy+keYYEEdMc3PuuzlWLt60qwFgVaPLxtVcdVhxkm3uyOjUHA3voaOtW5m21l2bY6/vSplAhZ4sOjI1ObXd296Bdp0k/S8irU6KLByQIguf6QThoL0tcLxX/t7e3uHbzuCLTVeK/dYLc8IhZQSXv0ad7jWW3Rsv5Z2drHywAAoo2LJF8s0qeQiGOUP+l3Op3nbV22fwIAgN/V+GZd2mE5Q1qc9/NhbKpQnUfSHz8CAABIrDlUm7ecAODcbSXb9ra5I1qbONYLivKPyxWCsM1h/THX6zNeNjnDj4Ob9RlPTI5vxeMiMQzDviFzihvIpQwNLqtjqsqh1m4QOkrCajieWPvbpuzFMyRxqeyZHXZaxB+0T+/65wDA5/GEVGiEXPOE6w/5s9XOSKzRMCOtOSGd3EgoFN4eZiO7Qijpo8Ibf74BACDgo9scCwAjvR2nByOrsYlUpLo9maIrlQUfBbNws3HrC43gB5QoFI6xo3eiHfXVcaw3IlTiy4vOV6/mO078opdbGtzYZ7byGmorRu2Nufl1di8A+Adsf6i0X7XZrrgir93Z14+2qCuqJKK+fTmNsz0OE4X3gsngYu1XXFGmRBhozMkwcyxIYxA7Nu3jIqQaY4WWOGO+rGYG63qlhUf3LdhZYomcD5KzFqx4HABRi+KGB9zcYl1zo6Tu6dw2IGkh65oeZ2IYhmHfnrnMM42YpRLwfGEfmHhJpeaVb0H2C+E3xn6nSf34jHRmViCWJQw7ndODAbf1zw54lJEJJpJXbN+rcr/zzmezVBhkqt64McZaczz0KQxCRPJHvIMRu8anpv3I1WXzAgB6QLhgbJT1A3ht9VUW5/R6lEcpS/dnxncdKjGH3b36AQDiEkT8EXf0aOPr4LOVrn78qbQsU2hp+F0fvO/wjdgtp+3Bz8BtPd7YdtnF+hH1mFKzU8NM3r7zx323KSbBeUBnsEZMozlHQw7rpcmgAZFiqThkNkiO5QAQERszPhIWVxBJauOxWu1/Wgp2vNM7BjDSVbZjn/2/9A31euXiKJNwksrio7/Vrw5ZJYRUFNYeq85O/Aozdi5WF1UY1TPOgYlhGIbN2yztDaRSb3xR9nAiAh+jM9X4gB8josUigrOVdsxlaAMPIV5ggkMkTt8gZe0nIpubAQBcx/MLUKGutsHHspxvuLf5QIHtrqkLKMWWosKNEs/JggNtXgBABAFjLAfkip9IfC5zeL2OmC1qyV/NewKTFMUSxNiNGVsyBGK1sTxvqbduhyF0supg+lSqXOK79sHEXTuPIEUxocP8RDH86fM3AACww+57M0xvAZ8UM08yxN/eMf3t8N63dewuk30EgEeKU1etTkmWPymj72edlz5wIgAfIX1xV+HW1UKO5fyjgx6AxZqiVc6yIzNO9RkVImnZUkb6qFgmlUl+RJMCti1vZWBUZhBBxRNe50SUhUSMaotOu4Z2t5Rkvd3m4lBgOilu0FqaneMq3l/cmKb6Y139cYt94hlLRK8vrtopthmyLEMAwYUsvG2GHT+srj1U7dsWMhXHvAjFK1IYOI3AiRstMAzD7o1Z4gZvW9nWtq+QfKyq+qyeCdwxjrksJTPNTu211xVk1c0tTYG86INqFeFqeyun5PREhSB59WTDRgoAYMzZmNcVchJErzcaV3PmHeZhAYHugOzRRTB0fiKwIEiKWAD3UzGCcY8PAIBYplZRzsocgzmspkHJhR+WK4lg+taJ95Zk1p7IpiNXvRJHzN8AAN7TW1fut8/t8mZCyRkRWlbU2c55r/daqs6Y9pbQv62obpLW/Sq3/q+M9pdqocNmOWhqtTq8fkq+qajhxdVSvstStfnQBarQbCzcbq/8ZzLzYGRbDFpb3V0sD9t0rGfiAvz2spVb+18pr3lJ6Hb29zla696z2y453JOLWwkQ+DiIT1OI2Ru/8wIA8MSZZeUb/B2m7FxL5IMhAKyjMT/dtuZ1/da8cgnKeq3R5Qd6U23Dq/xWQ05ZYAqJ+ybnAuecDQUFDzSUv5XnzCyzf4lnWC6Vrnxi/kdhGIZh3yJEEGQCTS+iiHu3QCa1TB65XjYPkfEUlUBGnkXA6E80FSkpACBfqunp6enpbjEqJ9rZ0XJ9e09Pz6fd7Sfy5HdfhFlAUovEYjFN3sNlPnmMzlSdnTTT25RqX3V24uRLQr7dmLdRIY0PyYFArNSqJ7okwsIXQr7dmPcSM7miNrEsu9rS2d3ZlLd88nBKVVytWw6ACDKejP5foDhjp5VqMFVlRWCp0e52k2bq0QYiYnck391Q/lL49JE8gpwscFLKBHsupAUtPZ92t9eGpMaj5KnisEU/n9XX7FaEn4JQ7GkoWjOnRb0xDMMwbM7mvCI2NlcIIVyqGIZhGIZhGIZhGIZhGIZhGIZhGIZhGIZhGIZhGIZhGIZhGIZhGIZhGIZhGIZhGIZhGIZhGIZhGIZhGIZhGIZhGIZhGIZhGIZhGIZhGIZhGIZhGIZhGIZhGIZhGIZhGIZhGIZhGIZhGIZhGIZhGIZhGIZhGIZhGIZhGIZhGIZhGIZhGIZhGIZhGIZh3xYk31mtf5b8ek+SqNK9xMxyDsRo3sgO2wkx2W9kM7FzPAcp1+o1yxDESuVJxPS3iRSdfqN08g1yTVH1dgbNIV0mq1y/hppjJoAnza40qhbNdXdsLsQbi/RraACARQrNRvmMHwaPpBcHvkBIvrvBuH7On9ocUGvy8tbSEVv04VvuRsBo3tAp4gGJ5Uz89LeRdJNelzL57Z/zXyVPrC42qsV33Wex2lihkfLmmlMMw/5t3TenvXiUbLlU6GTntLNAVd1ZJJ/5B8h1PCO9yjl9u/Q5TWai+YP37XdJm3hOrU3lDG+HbclMHQ3dclcxEoUq+XZda3xmcSH9cUlO6UfekHepda+omSsdweskmGfThH9t5GZPFpHSZGagbo6ZgFgJs0zUdXuuu/9bIeKpmLlEatyoeyjkCylQbHoljThiAgC0ZJX2lVHX+za3P8pxKHGD8bDCnp9ReRmIBAl9e+aTCUiKXDCPnPDE615RS8+ap97iide9opaEbrk7RCevVTjOnPCt01f8xFm2o8AyEPJurCLzFfnoryqDOzOKny7iPvFGSSeSULycgY8AovzZTZ6ZkT/kOj5rSnMsE4DRITc7h78cDMO+c+YYN9BUvGfwb8GfAZ5Y915T9uKQHfyu+sx0kzP0ZYbpGgcA5Es1Z9c4MjabXH4AINWms+qpZBEh4Af/LUpeRrkv9XMEMa0dwOdjOQ4ABIxui4IgobpbGXiDu26zIzlBQnW3anJv7rPK57MbZ/g15cAPwFvgPWfIia1uKD48eDOjPphtJN+iTrCbfhF8HZu2eqmnq8Y1PRVmT3vN+mn3eSlNPZvCNjjr0jOORjkcRJTo9qDrn8GXpLqmVc+ERlpeS+6qUlu0au97jifVmho0i+aw51VTemb9ZOHS6ZkKX0duW7SPHZEU4XUH3+H6TCWNTO2evK6MygU8gP9vxjOQa40tBczsOekzrd1c7wag1uepFyNiZ0vPTgAA8LP2iy5J6BYA8HsteStLbTMkxXEcAJ/H2t7aVvKbo8WH9G51mT34ZyfWaJlrjRsvTbxGTypW+O2GK9MSmf7nGVDdowp77TXnrCy7PPEiLoHiu22u4FcOKcv/YlSEhlTcRcPTeW3wbHFLsXyWAgEA8FpyZ75MDMO+y2aNGxASADxIi5Cn14uQAPiI72MBgLXu3Xjg8jgAAC+tuEkdedwdDgK/QZP/9wNA+A3I0rxTteqw6jexoTNreh5cjZnplU5KZTSuGjFlpPWrT+i5/elllymNqUELlRnqxltrqhteduVrKh3BMyCCJATTk1rIB+A/QJLx46MflR1Aci9LIGA5AODRmVvTvO9ltY2QzLMP37hgB6WSIWh5U0/25NF+V/3L6abrYH/rhWeqwkopzXh2y83cjTX9oVt9vmktNDyE+EAsoeOG+j18hO7j85GPBQCfvTLD0MoBACxI2t2we3rOo6BeqmlYbnk+r21e93VSbXXeSokkgQSfu/90WU6Vjd5Uc3ibjPCx7pv9rW/n1n82n+QixMqzd2euS5F4f7cx67h73of7HZUvPF458/so1di+e7RAVWYPDapilbpX6N5399ijFARittdWp/bmbyi1jU1sch7fZ7iO+n18+j4A/4yF531/6+PvRyamN1enOfJf2GuL+GiJZXnl20W2/JUmUcXJlNaNOeZRub7hgLwjf2XppYfzjhnpxpdzW6bCGhRLEnyIhBACtFBIkcJx+5Gyd1L5HgECjgMAEKnz1sOZXRY3IVUsZbsuehRr0kgRURMSMcOQZevPSu1+Z93mZ06EhqGIKXyvEN56+cClsIv1jQVPeh9fTAuH/+HmCxAAn89jfQA+Z31O3geBj/DhjbXVCQAAXEvu4y1hWaa3NTUtP//85pkidQzDvm9mixuW68+aVIGqXXq+Ww8AwFkNOS7gOHbYO8QBACCPL+IoHp3d2J058W+EeExT18QrhJDranC3y2UrHy8DAABCYTy1l3/wZ/ltM/aFIBj9/LihudE5Ao0HG+khAL/bM8b3XLc7OYDTJQcEaXwCYOLXCzEFp6rXRBnBAACQ2NA+2TCw7YnSZ3ItY0C9qM/kn8k96ULyoqI34hqdPupFif3NtYY/jQYzkGa0qH2B6opjw9tg0bgfOG6UZWfpyhFva2rKCvR2y5s6swEA/Payl7sAuFterzfwO54wOg5zaKknlbu2MORgVxzAvOpnR11uVpPC+GG54qZ5T5WNA3B+ZO1VeG2lJZbrX7llecRW/64k7TlRv2P+QcOXRCoKdisIT/2VKGckUvVFLwl7qxptYwCAVNXdRRF3y8tberaHb3HWp2eaXFEae5B0m15F2MuqIoMGAIA77o6DO09c8HJE5YExGAdg/8kBOO02L3Ded0pNmfExCLwT5cuTvl4/Y7MKU9EyGQvkKQKNGaRyp1Z0saSgjxNv37t3eWuOGzYsHzRl5phvBjO3rPC9nVzgL5EbC/968nzjdwBue6N9PUnN0fa8xwL/rulMnyiBjJMAnM875A38PcXcxl0OGIZNmC1uuFS68vFS8fbm2gTTSr2V48mLPtRz0+KESH5XvSbddB0g0E+x1pEx8UNMqGvbpzVNAHpMq1OMt+6w+hCKqDA5LviDxbmtdY20tqn7NTECANADAPDCewd25jmOZmQ1uAA4295nHt87PWdIYWwvvF2wcn/4KIrFmqKtstErrrRfGnXL5bfey7HL83T3dxjOu9mxyUMBwOebbDTe3hyMAILC+ykcVWun33A7j6Q/foTU1J9Nbl25tZmFRF3zYcrzZX6UEfOaSnwHgIgjeRC1I/9uxrosF7zKtavXLW40/V2qK5DZigyWm7MfNxeEVEb7+uquzr7nTFCqsb1CGRb0jVkL0gqs0cqJWl9cqCTBPzr9LZSUXV28GtoMhpOBDg3uvHFt7/3BrxhPpvvtLv7RrMrLU4cInzdWL/Nx0cqTTNXv30ija9be2wTBY9nwfdjPzPVXFcaOJiWBAADeCJwCjF09xuA+2jfaDKsMVm7mZhWeVH+qlnr36dxzYZdKrS3cnQo3Tj+hK97ApKLW/Db6tQb6iin/6lQkgPwAfi74l0lq6iejgaCwfgpXY2Z65VUA8DZmP94oUJaf39S/OaN+AMiNDWflgx7/nMdyAgCKo2LBOzKPIzAM++6ay/gGQpZIuWy9HAAQFEV4uwYh5h5mIVau/7WGRkDXdk8PKez7n9l6euouyVWX8dTU6EOkrPyLdmBz1FGWM+A83lFiEUWAPezWSxAXww3fElDihxjGb9na5PT8qMtc4+SWipHNOfETzkcIfFxIyMReMPxsr9UHAMBfbWzX3MzNqun1AQDEqU3NaTNlAckeWeR29LEAgES00Ds471ofACVqM3nm312RFD0pJHjBzqB54OxnWt3rNYqfKz2xq+H3+fcqaAAAyVIJOI/3fsUb1Jvm3B2NA4HrWqKp2ieMuhexXF/1S8bzvtn988iBCPyl2bVlOspRlrPfOtmEzg25p8abxMuFgsGuyy7XQMhh4wA+dnzaiVBidkXx6pgRFoBQGE5l0h8f+FVZ20D4RXJWQ9pThsmXYl3zMUnd07nz6Ebyez0syB6c1oQUS8CQh58gZsRMzKUC0+VhUYLFNOiWPEbYPgt+kXmApsJaAODsB9NzTw8DAKDkYnMhvPlCySUfAABaXfGhJiz9RJl47ItA08XDD5Hs0PC8Pj0k1jScYtp+X3nwpN0b/lUUb29u2jRoSJ5PIWAY9q9tDnEDYmRL3I6jXgAAsfhh9ka9B2YZLcajs80hwwKAaf506pUr9E6UlOsPG1cgL3fdsvllkzPsR4fUHDubPHv+ZjB9sCEA2ErTL3thmUjIg7D7xb7KjJWVEK+qPrHIst9kHwP4rNE0omk4tomtyso97QYAECA+ABf68+fnfGMTG8YBwD/KjgVf3aUiF8uS/M7zLgAAWkLD3zpcd+YbhlHqLZS1vO7GxlEQEHH3RY4bmZOr59uua7Jf3M2UvFzw2b37UefRjJT0+WS64kdi4knOWlbS7PoyqXOsZ9A9EVERLED0uMHHsoPWsrJ3oSgibiBWFFYQ4zZD1t62mcIyYtkT9D+/qOPkugKqo8ocCA/RAgQ+LnLsQlJ2+ds66kpZgWNV9XOstTwf9lUUH3tEtr+g7KMv2R0zfeAhADiPZJg9sPAHooi4wX1868rjQKQUndzDmQ5aWQDnaZNnTfl7BcIPdDn1VzkAAD7i+8NbSnyjXOAL6fON3wHgWC7QeHZnPKLBkEqSxVwz9/sBgBQviXNb+2drUQzDXW0s+4toy6s1p55vqys90Ng3VX63rtmtFzzef8MRvhj2/TWHuCGRSQJnmRMAQMzIiIHGfv9d44YxS+4TlslX4f0UYYjluvJStfCTAzn/ndZkzG4KiS0m2c8E/4UU5R3liulDHac9xTDxMILXUvAzWwwPIEXf/HNX7i7zIMD42DC7lPEJSRHAtOccSFWhbtHFEsPF4K/eQGP+gUcaDFX6wayySywgPh+48F9cxJ/oV+EvAAAeP9jNcrcH1ejlTEy/2cEBAMkkUYP2Pg7mMkA9JKNrdLIrdQVDHPXPW8ATkiTA2OxHRfK7ej/3wmLg7jomg16v1y6bMazx/Lep8lzEnTEjTeAG3zcfqrKzi3VN9XrVha3mr23IHHfVlGsAIEIfFCAkj1J8RAz+MX9HuW3mMxPyZ6VwZZ/dw8qW6ow7XVnldhYghkC+22HNDWSq/vA+tfBK2Q69+dZLqwAAWEd97sv92yuMv2mgF+UX1DlYAHpbU7M2ygwJxu6pfooAx8GVWSe9nHXf86sPLeBB0usNu/0Hs2r6AMbHR1hKOBwnItH0UDBWvmv3CufBly1DExu85/aVSBsqyopdmw1WL8D9fOB8YVm/D018Ie8DuA8WBF8Bf0H4iExSztAuu50FAIKRLRru/9wLP5ix4KLwD39cV3n+T4rX9xTm1Z9KO3lgzxFrIFxzt5UVtM0nKQzD/uXNHjeQNBVzv0ihoGx/XpiWQvWftbOwcKadxTubmzZN7xkNa28ACFbtg4MOc8GJOrvv2TTf9fpZ2hs4a8GKx2c6r7SgpVp4aKU+tAecY4fcLAAa8fnu+DxDwZvXv7kHiWSJCGxhLfNInFWxa6mn4wOZbt8GyRLRjd9llH7EedtK9iw5VrtnV1dGqU3AR1zYcDPiWWPns6GJNHRvnHrh+EvUnCLRQ0I+LV8lPm8eWZWW6LZXzfOGlZBrn3XX6V0AMDzi4XiLYmIB5t/LQKbqN6BeJ6eQr0kmLlpnih1cp8sMp+eRLJLKJHfsB35nZwGAD0ggohMmB6t+7dBiZV5RoTqJAK/lnYN3CRoAEtZteJLryO/iOK5uvzm5tkh3Ib3sMhD3x0wNKiTEqp3Fu9bSnnOGrDfb3ByETBHltR3JyXIbq35Z2xCXn/OmzXU04/GjM5yLUNW0q+0vZ9QPhGzkWO8QCwCi2zDu97oHJ74GnGsQ5I9IeG2O0L8FHqUqLl7t7z1Ba40VNP0Qa9lRYB5ibW8VvGNq2LtH1ZtnAQEBvlsh30/EFLR3F4QkUhF8fBkAwOUKSZwSAcUopc31Lnka47cbrsL84oZAzm9aK3PsHZuM+7do1/3ZavoKA1wwDPtXNnvc4D1tyCWMFcUnG37iIH/Yb77gBphx5jnn0Yxnfhe8mRFIMivKMxfxkd/Hgqdj/85DlyYHr/lYP8BNi6kOAOby8MC9c7PXNZYpkyK4GfIbu1hbvE1K8LgVz/r6+/vt56xdfYF3OcdvD5h/sl+xFNlGCeQbn+zdcB5Jf/wIAAAgseZQbd5yAoBzt5Vsm7lhPJCgbX9OWXGVvvaY7DKS/MN2wAkw18kuAQBJt2iZB0ByuMYHAMTDAEgojHJ3OksqidmFSmdlUatYwBh/okqLtVru0aA2WirmX28NNFSTiVIKvK1fLmhYHN7+NGad9Qi+UGXcp5cNWEqPUrvCR8rQyxjOYXdPFRKh2L5Jcu2DfZ9wAMBdrav8kyLvSQm63B8Tyx8fCARRSLrFqH+WO//m5rLTzmjly7lOF2y7baza+MTDhM07t0nRZsU6ncPxUqkQHENTG8kXi/QpJOIY5U/6nU7neVuXLTD5h9/V+GZd2mE5Q1qc9/NhbLI5zNuY/Xhj4J8JyvJaoyIewO+1HczJf39at5HfUakzoIq9tSckXSMMZzNEe5x1rtl3HM/deI5g8UOZGPb9NZdxkazjeO7LA/raMjV1s94+eNd9OS4wRRMQ0uxio5p3xvB7sVHhMPyBLt5TBQd2lrW5o/4o8RfP1k8R9RGGMOXdPQAzz0cZzKGj1wkaqQzO2QGQNEXmttm9A62Vv+oavORwT//15xzv5KRzLIdSYhbc9kSO2iekGmOFljhjvqxmBut6pYVH9y3YWWK5W5c+57IYNrq3V5dnidnTldGe95vZ4sxM8oOczcHpjRLzmk9oyFh+IG5Ai5Xanz/i8/iE/9lvOmJlkVj9CzU1fAvRNLpcUno6+FsuUha/GmPeW+/iwH3OxqYolErS8n70X3p6rV67fO79FIh6UMheCzyCSTByCfTVtd0EIMTqLSrhqIdPQddb9XaYIWOhBsy5urqp2TDucLNOPujzWPZttsNNt+/Z8l1h7yDZpmr1lfSMhomsksq9hSnjlh0ngoXP2d9Mz/ADAEU+ALeuBPLDOY7mpDdOTRgVlbvNkB5oh486YCEEc6pHBwB+2yyDBJ29fWPrZEmocYgDHi2Xc/aLbu8Fk8HF2q+4ohTCQGNOhpljQRqD2LHIry9arDK+vYu+bLY9meY73Uptra3g7TCcnDbz66C1TOt2HzicJwfrHxzcVwvl2XsVQ2EY9i9pbvNFAiwgKSF4vQ9mlhffyNrvAgBEEERsYEBWTMQENsRjmr2/fp0ZMRfoKm8oawBgsKUgizNWGU4eW2Y6cNTsmPZbPHs/xeQtPqkoekvl/W2J6dJUKtH6KcLxEJWYLF8mdLWYbbb+vBeTpTy7wx8n3WLcwHvecMFl/ygk/wlimjfomLjvhIkqK5Ygxm7cCskhkaQu/HWefOREwY46sljNjHSV7XDpDxkb6sUHfl3ZNjkXAqGqPq9HB1eGPBiCiAdJ/ogX1hRX9OfkXwAAtDCWCDzBhwgUfXyEQJz9C1nvm/VTlz0yzPohhhQCsCCQ699SuXblnhGs1ikBgFC8Ucxcyiloi9HUV8U5g/NaJCj1v17d++vcwPMk3MXzHUNK1RoV/X59tIktwdVSZmiJ9kZ0nPvvg+OxgADgMa320f53dpjdQCqLjcyFHMNlSr0lOWrGpLtbGlJsWS+UBRrnuTGP62/Dgx7vfMfTsTfdEKXOiyMfgNGRiZCPWKY7XJjseT+n8nLIlyVwIrToYRF4/jEcvJpZgobwS28reKoNAIk3VRQuse7bHxI7Ru2nCIcQST+5glk0euGk/WMH7E5h0Ec2jifeYFTFrd5qGXJYp5ofECmWCD0O5+QMmCwHgIjYmPGR0LgC0WvyjAWr4E/7ct726Sxp4Hhn3/+G6rJjDYmV+8rNjogWJl5M3A8I1ssmF1Rn/y3nBADw+AtJgvADABJGPh89V5RSvyvVY/5VvR0PjcSw74v/mMM+iE4vP/pLiePtnBd21Hmf3KSiAYBU7Gvv7Ojs7OjsPF8kDw5XRIsU2fuaPvytlrpSlvVapT3kt8l9zpClq3Mvy2uwNJdvU9BRJnOcG2+X+c8+ZUVD+dpZVyRCZKJ89XKaT6sbOrpbjhm1z8koPrjbWntjV21IIYBHxhGjHg8HiBQvV6q1emNlQ3N7d6elae+6yIYN+iEReNyBKgWJGPWehlO/1Ykul2RtM01eJjdoLc3OqRuSFzeerSlQM/EIAJA0SQL2tsnhlohS7qk1pnjrdryQ9Xa/5GW1jA/AZ/I+7AyUZ3uFiowM5xCzrbqp+ZhuOaPeraF5AADU2qKaik0SHtDq8pp9qh89tToNWH6KSh7fa6qysrGr1CmeDhsLgiQZ6fz0GkBSdnV981mzUZUkUXLQbHMAACAASURBVKSKAQB4tKr49RUPACRqq45Vz2Ndrpk5G99pI7ONxvIKDap7LbfRyQGxYvUybpRMUy3lX6gy2QXTMgaUVBrntrVO9ehfqszKa5xfS0wI7vYoh+LiJnt/RHImYdh5jQUAMlVfW5G58KJhR5VjqopFBCFAAEAwiiTC3d//VZ4u4Zx/+sBB72qo1zEzzDo2BZH0cmXyEhT3U2N7V3tT2S7VUtFCYK0tNkjZsDoeIJ4ibnuHfYBImnlWnb2zqLq+uf3j7vam6k2PRlTkBBVPeIeCDSpJqjzT2aYCxnUkZ/Ob1mD4xbGXKnOyy3r/S9dwqqlok5ya/Bsk5XmHy9VgLlBnlVwkN7yUTADwE7Ob2gPfyfaaKIOW5mThEkaRKiPxclkY9j0yW3sDwWQbi7QMdL29w9Ds4qA+R23mWJEOvG15zxsuBp5dU5S36wJ7y17WZUpcJ/ILTlyM0h/B9jUWZNiUr+ZpVzDCRmvUG1yAwBzRiAMqTgAcN/2JMM75fkHWiLHhdZ3iQkmXHwD4hGAB3AnbiVxjbChQUgRwXlfvxVb7J11dF+3Oifn6LKYWde3uvRrBIBM7eHwA0JO7aysVcLPf4XC0Hq2zX7I7BoPZFxDoDsuBOG055b7k5ACAJ84sK9/g7zBl51quTmuSZR2N+em2Na/rt+aVS1DWa41oqQxdbuzwAgCgRLWxVKcg+k27CuqvsnA1/4U/AYtU2T5b6U9zLYHHIpbpW/ZFTn9lP5qbET7szt1SujWkJQDJk0avfXziZBsHiEoSwwjBH+p3jQF6khH/ze7gAPrqc7Prw5LwuyyGDAvcUyM2U174sgT+cfD2tp002/2AFktp3rSMCZKeWOS+8JbjLqmieJqOBe4OEkpEfP9s8445bB+zxqL2nqLgBrbPVHkVgCde9RLjO52/40j4kEmRutasE/MAALwXSs9cn+81hxuyVebk+kwVuvTWnJNuuA/4sQunzSiN5G80GdfSBOLYgf6uj+x2W1fHJcfEhKEX6z4YaNIV68b7pPTNrgEOJK+U17wkdDv7+xytde/ZbSEdakiAwMdBfJpCzN74nTdwOcWHdKJP6nJfaLRPay/hrltKNXZrtj5vS0XVAzkZVQ5qTZFxt0o02Ji/rdI+AlCy0cZnfSmrfH2m9M31gUiE3tbU9KMvUxhTw4AwDPu3QSq356kSI26dEL1cLg5ZWAIRwXZMXmR7JpGqrylW3f1OFj1b3hn84QYASMhu+LSn59PuTku1etHMRwkAkFRv6enp6enuaDZGND8sUqjTFdJFM9z0IVq9r6nz486m3QwBAIggZxicSG5s6Onp6enp6f6wXJUweVVE+HUi+e6G8pfC78l4BElAoKkgLzWYDUKeXaCJXCwcUdJU6dQ9GQ8hYv7Nwjxa/YY+e6NGk5WtXk4CUKpioz4ru+hYZ1PWvVwqev6QNKtIn6XRbMrOXi8lpmcsQVW0b6IRZcYkUo3tgU+ho6Vm27SVzZFUvTtbHrrwNA+RIopKoKgEioqftTQREU/RYjEtmqWJgFQWzfplniBACIBMr+nu6en5tLv9mC4i06RcrVYyNDlD1kRK/bH2zs5mo5IEAIglZ7gGQlnRGSiYdpNm8i8IRawNx5NmV1dnJ0UcShI8AACUpMnTyqmI9OOl8mUh2xCKttoLAAC13ljzhnIOi3ljGIb9++BNm/76O4NUm5rzkmbf7xv3L5ux7yCEEO4IwDDsmzKX8Q3/9vwc91W6vL81lGJboToR0VLprF3t36x/2Yx9N3Fc1AU1MAzDMAzDMAzDMAzDMAzDMAzDMAzDMAzDMAzDMAzDMAzDMAzDMAzDMAzDMAzDMAzDMAzDMAzDMAzDMAzDMAzDMAzDMAzDMAzDMAzDMAzDMAzDMAzDMAzDMAzDMAzDMAzDMAzDMAzDMAzDMAzDMAzDMAzDMAzDMAzDMAzDMAzDMAzDsC9NvFZffqK983yRHH3bWbk7AaM/1ZyXOM+j4pVFtU0tnd09n3a3m8vViwEIRdGpzu7u7s4Pmxr2KMmvJa9hvjMljGEYhmFzgOT7OrtNKuLbzsfdibc3dfd0GlO+TN1La5t6etqD9TZidjfUbGNI3r3N4F18N0r4a/If33YGMAzDsHuKRz/xKN/1v3vZe50wWiRXpdL3Jq0EzespC33AJ2K/zNGu8+cdHJm2NpkAoNYWZ/pNBUftXv88UvhK1/K1lfB3Ao4bMAzDvl+EjFTEftHnuodJEkkq3b7y4p9TNxz3JFlS+aqs98iZQT8iYuO+TAKDrWfsHPET1Tplnn7Zx2VH7HOvwu/BtXwNJfwdct+3nQEMwzDsXkJLZTRv3KcsKlobRwn6T+w32bxfPjFymUr7YnLMoPWDgwWOkXuUQ7l29T9O5F95WOaHRUISwD3/NLwd57t2yRWvb+zPyWlzz6ml4Z5dyz0t4e8eHDdgGIZ9r8iWigmPs+13pZabSFHWrt/StbbcMf9kEJWi3rL+iQV/PX98f64z4naeYLILVA/PNJ6A+8JS3mgfmylhqTYdPtjr4HwEOwYxsQQC4OafP9bR6/IrpH6fd6YThZzy3l7LPSrh7yocN2AYhn2f0NLEONefCiw3AQAQ4lO0hADHvHriSXn27nTZuMPSaMh1Ra2VWXv9XvuXzN9LmdSfDphYAB7rYYEfG8f/EnEDEmt2PzH4iVf6ZNq6xfWm6zPu+DVcyz0o4e80HDdgGIZ9jxAy2SKf810XAABPJluC2Ctu3zzTWMDjA/g4zsfdudfZi1fplJTwdkXNeh8AXxQLiCVjAOZZ6ZKKN16nThsM/9SKn9Qonpeaqma83b/313IvSvg7DccNGIZh3yMkKbzP9amTAwAQJzPx3o4/2TkAKlWnWerz3BbGuBsrW9xkik4nB6+PpBO85nyTPXx8gPuiyXAR0amZW8o2wOeWxiZr5J36l+ynIBSvKlz7MwquBl4iVeVfipYISR64/QBAMps2Jf/n6OhCoa+lrNFJMFm7lDGDtwQS+k5rfrk12CaBpNuK0z6vNNhYAEurU6N7dhVz1GGfocni3l9L9BKOyDzcvYQxDMMw7F8DoSzvqNHEAwClqmxvLlaQAJCkazqhEwsIOjVPn07B4uyGep2YByilqKXy7pMQIEqu0VdUG7crxV/qgclQZGpRzZ7QqZKQfF9nT2e5AgEA0JtqmvfICQHFaPWaRKDWVze9wSAA8c7mhk3U5OVJs6prCpjJPFMbG7p7Oo2pc5kE4h5dS7QSjsj8fEr4u+ebmyYDwzAM+9px166NPZWRueqptKep/6ey4JBtBECq0SsXuEYEcffd+LDxL0OMtkQxWHu02/vQ6q1PuI+ZP7tLL4Gfvemwtbf2cj9OfzXnZ0l8z7X+odvzz5VIVXRof+FLT9H/6+GYgXbb/8sBYrIr9mU/+VAMIXx0+Y8f+PsXD6k3/eDvf4P/yR/qNP/5xkNqQ5bvVOWFm7Fpr/zs9of1n/yDVL5RuU+fm522JO5/3Olvu+gaB7RcdyAn+aH/QSx5PO3HMuJvnVeG7nZb//+3d79RTZ35vsB/Z9K1Yxl3Lj07Lp3swesW5yTSIdTRre3E2hKc3lg7NrY2dTT+QehY0VHjKU1bii7RdOTGkTZqxHPlYIUymuIppR3NYmr0WDO2RpeF3lKyrjXe4YRzbckql+0g2desuS/UCghCEAT1+1m+kJ3n395vnt9+nmc/zwDdSzdPmH/eltmh8bF4njAAAMAwo11TWTyfIyJScPqUMUZHjdPEEPHWkkpbahzlsFqjZeYA7fvUFW8tqchJJiKiRK1+nN5+sNjKESWaXFUO4yBs5zyg99K58UlMv5/wXQHjDQAA97hIY+vDGY8LSVpR/Jlcf/pEY0JG+i/Gppqfn9r04XZfqM9T73Ik9NX5AdrDoSsp3DL6iSe0YyeI4s8VoVP+BsVjM6cJuqdeNLZ7t37c0I8PNW9tQO+lc+MDwboI278nDAAAMFxNsVe6hvvUu7CiojST7z3d8HQ3POF+wD7TAAD3HfYRi/2lDLVKKyYNdVN6pp1ts/03DTtB1N6FI+N3xRMGAAAAAAAAAAAAAAAAAAAAAAAAAAAAAAAAAAAAAAAAAAAAAAAAAAAAAAAAAAAAAAAAAAAAAAAAAAAAAAAAAAAAAAAAAAAAAAAAAAAAAAAAAACAoZdscZbkGxMHpjA2xWw1CczAFNadZItjq1WvGLwKAAAA7iMPxJ2jsaGJs+Us8fjeCXbza3JO5R+zhGv9tFT3Tmbme2E2QdklVbRNkmNERNHoyOnr3kljVuRWM1lllTkp3RQpH897wuaViSjRUnzYpvv+u9YYEY0YNbq96g2P8ObKtM5hQTRSlft8YSBGRMQIomFsaF+vN6VgOM2oEb0mI2pvCUekPqQDAAC4F/UeN4hv1hTP5bpeXVxxZnGHP9t8uRm5PpmISJZ8eZYC/wOG9RXr5Ath7gVXTa7YObPktT2Vd1wmIvmb8tw3Ru3e+o6tKXPn8ic9Nw0MCMtKd4/r8Hf0xBZzrlcmUoj5VXb5YvnLT5YTEb+4tNJw+Jnlnkjn7KOSeGXYH4pd+5MxOf/dYew4vHEtKBlt2XrQ1pdhidC+BfO6DZgAAADuA30ab4j8Kfc32wKkZOSoTESUoBE4OdLY3EpERIx+bWmBqkNyWZYkSZ+mjQXe/kyOyC9P3t9TwQz/iMg17sxd/zV3TpLbSL4phSR3vqYUc8ors4mIGLWaPrxeTqpeaPD7OwUNDMM8oNQK6u++DSsTGCKlUiFFiaLBkuW2A2EiIhq/cLcriYiImsozp5Z3qmiKvWY7v+2J1d6b2wQAAHC/6ts8hSxJioyte6zR9wsK9tVFp2S71jXn/rowfPU9vrWbrlVrEEd8VnSil06XN/3z1rT3n1hd7Q33sb3RgNt6Y7yBiBGy91Ys0UiSTCmlNfMZ9qHmsqXz3EHOuqvG9sjVPMXH5hERUbBkwXtEcjRyMXI1wlBdRlAAAAAQh97jhtodv/kNSXJLIG+jxvnW7t3M0uXfKpWX5dYfUtS7MxeQ1LELfkCbYVB9+k5AJmJYtuvqBiKiaLTzSAKT7qjZamJ/+DtWV2TOLG+6KZ9y+rqD1TlERCNU6var4w3h6tXz3omIk0Y2nFXm/HE9ERFFyrMmlyeYnIcWNyxdUHKBuIWlHxuammNCr/fbAcuPZqgRsQUAAMA1vccNcktESjEauRO+0+7VaxtEKcgYGGprlWM/pJAiXTp4hVKpaFexLHEZrsN28eZ1A7Gg+/kFJY2dL9aXLPhdWVOMKGGWs2pWN01p8bz8mKfLNWEaERGT9Kztn5VbrEc6/ZaSpm372tNIRDR+LCdd/C6+EIDR5xz8eHr1ni07PMGWTr9oV1VWLG7Km45ZDAAAuL/8qA9pGJ0x27G3wjGbp3qfv5FUD6moTWq+RY5o3c7/HtCuXme47Hl56uTJkydPnjzPXS8HNj959Y/JU28KGogoFr3UIkmSJEmyfCXO+0hQMtHWLh868KlpqnNfNsSIiNNOGBU+1xCNq0w54F5/OPpLW8XBivw52o6rKS+dC/iO1kZiPWYFAAC4J/VlfYNct2Pp0uat21/bbDmbWd7EaH6ili6Gb90Hy6c93ku7zb9k/J/c9EquIOpHj8sY8j2ODJaISMmy1CZFY0TSkT2fEBGRaqSqLdzaqVjOIAqhQEAiIlZMG/ddw1cRGhNXlXLYV1RyvMq8xrH2zb3izD2bNpYEIkREYW9hrjf+WwAAALjL9WW8gYjk4P5XMpcXeJqIiNcJbPjchV5G6GOh82ElnzSKknMqPso3JFy7zC8urd5g6M9GT7J/0/OZe84G3L9d7bkQLMt68smMJ580b/K3ExGxSTxdDHcab1DwvIZ40aRniTVkiLHAifp+1ErUFqr6/YLnbWVNukVZJr5fRQAAANwjehtvUOjtB0stSTddT6k+s6bj37J//ROr/9QhlmCEiTy1+tv5GaKm8cO6KOmIiCh8/MSlJS8aE/3ezisGiIgUxLAMEyN6kGG6b5ean8CGLxMphEW7asxXqP3zLblhImIfnzb+vL+BFLwcu96GWF1RTh6zdf3uMt2JFlH25wVuYy1CxO9+2XKAbYn0nhQAAODe1VvcEKsrNE8uvLGwkbcUvWf78Z4Ff2jSKmp99ZEbfXGHOQJmkr16u2VUo3fjX1SmrULD+59KsesbPFzwHrqwyGzivPtv6oNTciqP5fxQ74mbG6PkeE4ja5QUC5WtWOD+5upV34JU297C2qqj6yr2tu95dan3wvX0Tb7C7HB4y3abgXzv18lEt7WhdQs2igQAgPtd3+YpYlf/seKKzTliU9nbHmaSOedfPv7Ybbekctd+7UA+Wzhn6uTHns/za7NfVPs9n3QMEcJH/z2kS8+4aQdKoi/dcyZfN7W7jzCTJ2ouk2FNlv7BHy4x/Ezb7sL08M63PdUbc/9NlePenTPlxuecpFCNGsNKEXl6risrlSEiUihHciybyLKJnJrpZyDBm+zOwqxuvhMBAAC4p/VxfQOxKSab+6BrIeffnOv+Ug6+t3rOM8v3NOqydx2sLLDquz/min/Wamz+YJ+v83t6+PNAs1YUEzpdlP1bFto9t979SWs0kHdT7vsRLlEjPmcxpgriit27lqiPrM/M/VOYSA5V5mZua9DN0F8LHDiDbbvTQp5cS+bG49yL86ezRMqUrIqaY8eOHDt2pKZ4cVzbOdwwcoJoTE/jEDcAAMB9pvfvKXiT3b5slpislE5XFS51VwWvRwGROs/mzMP/Zl775trdZRM3Zud5L3bJGva8tTzwbZDVCOoHNeoEkmNRIqJzh4s2M3VdvseQpXCn7AyrGaUiEriR0asbRLHG7Nmy73eBUDAw76zB8sLTllct4zU8m6Bbud24smPWYLOa/OrZ+Y51Zk1T+SsrigItRBsX+pVSdMas6JfueUtLrgYowoqKin/q+7PqUMOOeZN39CcjAADAvS7ZbFtjNWrZHhMwvHGu4dq8Q3JOxZHOJ0cRia/XnDlz8thHLktyl5xCVtlJ15xuJwtYs+vkmTNnTh6rdMy59hUDnxzHidtMqtWWbeC7ZBitN0zpcI1h2ATqntbq3G0zYEQBAABgcMWzZoBh2f6uMQAAAAAAAAAAAAAAAAAAAAAAAAAAAAAAAAAAAAAAAAAAAAAAAAAAAAAAAAAAAAAAAAAAAAAAAAAAAAAAAAAAAAAAAAAAAAAAAAAAAAAAAAAAAAAAAAAYPv5hqBsAAADQR4wwO9ucwmsfZut25bk/l4a6PYOJM1itU/kkva7tw4KNVaHYULcHAADgLsOZHRtMLBE701nzkV1UDHV7BpN+jTNLy5BCyKk4VjyPG+rm3PCjoW4AAABA3yRymikZBpaks4Hzap1eM9TtGUSMmtNmGAWKhQL18ni9jhnqBgEAAPSMEYyzRXaIG8GJs418t4MKU+zVh/INA9SXslPMxnEDU1T/JRtNqd0+b87iPla6mL/T7ekZxhsAAO5KzJQsV4nTmjIYZfPmDba0iw1DvXwg0iCJ9lcNXbtTBW9ZqAtsedsvD0AdzCM5jheYYOMAFHVbLoTU1vXW5K6hEDMte9aVPQX7w0PSKAAAuHewMx3Vx6rt0wZ+AJuf76rIFe/wwDjDctp0a/7e4qzkTpcNb1Y4Z3ec3Wf0mfm2dI4SWPb21zckiPYyl2X0bZcTFwXDjRPNa1wVBcZODznJWrw3R9vxpkab7Bus2gSGZTFNAQAAwxMj5h8stSbd2UpTrI4iR76j4tipypzkzj8lZ5VW2PTXe1MuPScrnSMifmGWOfFWRWrnWw0JvVTLLyyu3DBQ0x19xBrXuZwF+a6PzpzcamK6/OSodM25HiQlaC2rLNoEogRDVqb+jrYRAACgj5h0R83erKGZTp+WX3Nz3KAQciqqr61lSLIWf3rmmkP5t/6eQnzdYbllYEEkZJXVOGYMyas8Zy25OW4gxuQ8VmLliYgYw5vV12/1TOnCYfQ9xQND3QAAAOhAIVjeclinaOSjbo8kCIl8mp6t3bXFN/ppo2YkPymN+Uth7o6AxBps222zxqkbnE+t9vLdZNnxSuHRSD/q101JbQ9WdZxOZ6dl5ZjGqxI5Ouv9eqw4kePYs0Wr9wUH6o57EQvXBkfYpgjkD1Jj+cuPl/cxX+/hQGKamHTeV9dhlQQjmFZYRU41im06cZzSpqg5davnjUJffx5kf8h1taHXpqYmlIfbZP/mOZM336F644J1kQAAw0ks5LEv/9cgK8yYTu8XFm5cvfE4a9ngNF3cV+jc9MrO2vELs2aNJpL8Rb8tCsSUpOg+i/mlF4X+TP+zOmFUJHz+xoUky2vG0J6NeXnvhlJXLROO7juvThMNaT+8/zKJg/3Vhdz0bbN6nDDwwwITtBo5HL6x+JMRV2Tz3sJN6wt8SovN9N2eT0g3ySAKRAremG2zvekq3W03DupiiOamZtKMHzeYVdw2jDcAAAw3Uboiyw2+w01ERJe+l0hu8h+PEJHcHGmlNHUi0UWiGLXHiO0pSyKrJgrFXbWKZUmSOvSlXOuRd30RIlYQRjUHvIFQ05W8uqYTESLBlGOepk8XAmuWlsRfURxaW6NKlZolGtjXfoZVqdqaO3wzMooNHigLyqTQaZOoYf/h0NlAgZ0Cp4lJX5Zx6V/zNn8nvl7pWG08kecbiC85uhOTWttU3FB//3priBsAAIafGJHcGiUiovYYydF2qddthjtn6ScFo1QQdegV5S+8PiIiRpyii9ZX1cqy/Lnv6ixGyOsuCtsMr3ZfEmvIeu1pHdNdJyNfPOLe5u3xy8KbssixaF/azqRaN8xP+6FGVqtVcU7x+qOQGw9v29F5wkHBUIw6FB32XW2URkxTh0+cjlBLxHeUiIhLHJU6w8Dv99SeDbIvp+kUvrqOT1ghmF/NNiR2NyByRa79YGP56TjCDDlG3T604WN4tw4A4P7U0xTDlb5n6de4fqy19TIxbId3e05vECKBs5yoV4b2B2Qi4kSj0OA73cvmDpK/JM/fnybcTPWgiv52qdfNJOQvy/O+vLH6wfC6g9+V52npOf3lVvnBkaobFxhhmsgE/U1TREGq3RkiIhLSjXTcF/pg9ZwPiIiEn/LR0JGuR0XEQlW/z6uK7556oGBVCe3NrQNS1mDB+gYAgLvH1Xe9QTyXQWoKS2q1+vqfjOn13a5Xn9VNyjCMls6fixCxotUsfH9Hd4Ti1CO/+8/wwE8N/LWpOUHFKa//qc12bt+abRAy0tOYxlCDTJRkyZ5CzT9ECZwpe3r4bad3EG9eqeKYpnDT4FUwAO7pU0EAAO46CsGycetvpqpVP9H9Yqx8JTlr3XMPq9U/1U3S/C2WtnqVSfePYzQPpz30/xTGdSueHKvSJP/ioZYLY5e81W2W7z/zhy7HVX2sdbQh85H/e/Bwg0xEFIv9Y5ruIeXP/uv33j9Hp/76Kf3kx8bUut2B613n6McshuifPzjb81t93ySZ8zevXfDUI2MT1eP1ouGJn7Wd+Cx0LVLgfpW1+MfHth/+X/FFDmMfz1Cd9n3V3nOKvz0w4bnnxtT90f9/iIgoxgg/H53ApSV8cfCrpKd+PVU/PVU6sPPDxqvVKgSLLaPR5TjUkqCQ5ds5nFJc4Vq/7NePah/6sebhx6Y+NpU97/uf10d3Jr2wOvU/S9/7LPL326gAAADgzhltKf7IYextx6RrUm2VZVnCoLYn0eT6yGnqZSeGbhh637+BxNzqiuy+NJ8VF+eYkoiINWVbB+9+tWsqK1dpB614AACAgceIuRXF83vfaIifYbUVVBw7VJy/yiLG36/3Eb+4uGKdvh+LNbhUffdnYnU02uKqsPe6pTY323ns+hZMN2/WNGASDPkel/kOb3oNAABwuxINdne+cThsUagxO3bbxD4OfvSLsNDpytYOg+MfGP2qYue8YXTuJQAAQJ+NM9tX3XQQ5Z3GGVfZTIN+UgYrZtstyb2nG1wpVnumfqgfOAAAAAAAAAAAAAAAAAAAAAAAAAAAAAAAAHQD+0wDAADEj9EaTeOptbnt74lj0x57Us+Gz10crPO1AQAAbg9jWGfv627Q8RXM8qmmrMIK57z7ejcBhuW06db8vcVZPW3toLGWnrq+i+Snlfmm+2XLJpyjDQBwF1Lopj7Kh/7HgBcr5hQu4r+NatO1zWfj3USR4ac9rZUO+eqHx1t3otY4Q11b7Y/0nvQmKdYNL01sbxMyUhhPz6mi9VXuE03RllDgqC/Yn2ruSogbAADuNgpWn2l7Nin69oCXHAu4bQFiTM45xnhGG1hhpsVq0sl1VeX7hz5oYEaL5oVmMTF8ZH9ZP3vz+vI8G9G0/Md/ldZjmhjJf/WX7fEN/Q3fWYgbAACGHSbZbFuWSi0yk8hPHBsuWloY6HByMzdj0bO/4JSMyvp2sSkaqtpY6L04RA1VcPrZi19M17R+7nG/URK5nS5UY8xZZuDZUWzbCV9YKwqjOPJtyqsKx1MGk2SwLDFPZUKH3t2S+43Ue4bbwwiz7IWzVKRkmZBnW5GvcbArHBYQNwAADDeMcUWO+pNncr0yKfQ297NdJgwiR92FMT5jEle+9uWqQe8ce8Bw4nPZll+qmo4e2PZKXSTW+cdUq/2FiSN6Wnn/H4e27eo8faDQZq3UBbZsckeNjhqntXJBYcRZPMegZarCV2MRlmUl6Rb3yiYbFy0x6+TaA+/mlTd2iV8446p1GT/pIWesvXb/Jk/9re61e9Hm8F8D5Rs9IZmEFRUVf7AttxbV3QeDD4gbAACGHTnKTF/pyp9wIhDweza6v4v1nuUOYsWFaxdNG9FwaF/B6mC3fbn8ZfmmL+MpMlEdri4LSERJgqAM+f4crL1SmOtr8MnEpJizTaJoYj98fnW3QRIzzpj9klm4dMpT/Iq7qdt+O+LbkeeLpzl90uLdlHftv+GvQlL2sy8+urPu+L0fOPxoqBsAhleW+QAAB1lJREFUAABdyD5n7p56lTjP5nBXlr6Wwffw4s4QkYJh7vQh0AwpiGLt0StydKCKjPi9n0tExE5JE6TawDmSv/H7vogQkVxf5d5xpOkWeRWMkoiicjQ2OH12D+/Xwtx8R+61jyjktlYiltMoB6UBwwzGGwAAhhtWnMn73lhQEmO4adlb37JaJnkKT3eXUEGMwb6Bezvvg4GfrlD2uL9PJLBvU2A/L75gdRSpQp/sK/MGpducp2B4/aNc2N+QNkVPX21piBERb0gfGTga7DUWkL/xFuV52RTTopWuRZdPVb3r8XcddRiMeQo2Lf1p45hLBxTecIyYRBVDkXBoqCaN7ijEDQAAww2jnbXMHDmSd1SKfH74RNN0pUREjLhia84/ndrySnkwRvL3za0ksImk5Ea0t0SJiEu3O5aovPl5VXdmdZ4cDrxXGNjP6ecuXl+U3XS0bF/1jVUO8c5TcC/k716l3Lm0bKLIhqtDEhE302pk9/j7XIJU73Wv9zLJxkUvbX2RaqveLfNd+CF6GLB5ig4PWfr0uM/wQFVdjIjY6ekifbGvvNvY7p6DuAEAYPhpjbAz1zvTW1sVo1R/KSoIEpGS+6lO4EMqBVGM6EuP+89iziaX7typPb+XiWgEx4/XsNxt7gSl0FoLVk4fo9ER0fztxdOaA/tWl9yiO4xF6iqLcj9gtaZF67Yuaj3tKX8/EI5/ukCqq6ut101cZvj6X0rYZ2yODZH2bw+5d8X9EaX8ja9ko49JMlisDteDoUPvlXm7X4DRmyRzfq6JHzOeJda8oVjfHPTkFfmkTg85Urnt8JrXil1KmRgmsmf5Wk9oeC1DAQAAGNYYfobFlDIIqy0Yo6PGZY53+0pOb5pruF82cbyDcD4FAAAMiJj0v786N+DffiSbshY+9ejPJ6j/y0NKqbbh2z6Xf/niuYbG+2LFAQAAAAAAAAAAAAAAAAAAAAAAAAAAAAAAAAAAAAAMB9i/AQAAIH6M1mgaT63NbX9PHJv22JN6Nnzu4r1/GiYAAEAnDMunmrIKK5zz4t2g8Z7CsJw23Zq/tzgruYcUGmvpqTPXfFqZb7pftqbE+RQAAHCdQswpXMR/G9Wma5vPxrtjNMNPe1orHfLVD4+37kStcYa6ttof9ykXRJRi3fDSxPY2ISOF8fScKlpf5T7RFG0JBY76gv2p5q6EuAEAAK6LBdy2ADEm5xxjPKMNrDDTYjXp5Lqq8v1DHzQwo0XzQrOYGD6yv6yfvXl9eZ6NaFr+479K6zFNjOS/+sv2+Ib+hu8sxA0AANBfCk4/e/GL6ZrWzz3uN0oit9OFaow5yww8O4ptO+ELa0VhFEe+TXlV4XjKYJIMliXmqUzo0Ltbcr8Z9LMpGGGWvXCWipQsE/JsK/LdmRPMhxriBgAAiB/Dic9lW36pajp6YNsrdZHOp00xqVb7CxNH9LTy/j8ObdvVefpAoc1aqQts2eSOGh01TmvlgsKIs3iOQctU9fFUbjbZuGiJWSfXHng3r7yxSx7OuGpdxk96yBlrr92/yVPfp1o6iTaH/xoo3+gJySSsqKj4g225tajufht8AAAAIMbkPHmmeD7Xw8+suDDf5XLkmLQDtnKSM5imsURESVkVJytztMQkG4yPcFd/sq6x2beWlhaYhe4CEWacMcfhcr5uFTUDfYT3tPyaU5U5Pa2L7NiGGY6aM8ccMwbhDPHh50dD3QAAALi7MKQgirVHr8jRgSoy4vd+LhEROyVNkGoD50j+xu/7IkJEeqtZ6d1ZaC8ITFhrn9tdKKNglEQUlaOxwXnZ72FcXpib78i99hGF3NZKxHIa5aA0YJjBPAUAAHRD2eP+PpHAvk2B/bz4gtVRpAp9sq/MG5Ruc56C4fWPcmF/Q9oUPX21pSFGRLwhfWTgaEjNaTOMQkkwGKiXzXodU+nvEh3I33iL8rxsimnRSteiy6eq3vX4m+7APAWblv60ccylAwpvOEZMooqhSDg06CsqAAAAhh/G5Dx5pnRhT/MUHSg4/Tyb0+W0zdVzt7GPILew+OTJUqvW6Kg5U7lKS0TcTHt+p9EFzuI+Vrq4lz0SmGRj1gaXa0OWcdxATBlcnafQdmhEur14r8OcRETEzXM45wtERMQaHTXHSqzdTqPce/5hqBsAAADDhkJrLVg5fYxGlyJQc7Ah1BzYt7rkdK+5WK1p0eKZQutpT/n7gT6uZOyISc1xrdVFmr/7OhCZ+oxeCkXavz3k7jAmwUyz714YLnilPNSHwpkkg8Vqnvpg6NB7Zd5gv8YAksz5uSZ+zPi0cax0rvZ8c9CTV+STiJ/nKv0te+B3mSVBIuKMa16zJCtlYpiIr2ibp39VAQAA3J8YfobFlDIIawNHm+wbrNoEhmXjKZzTm+Ya7pdNHAEAAICIKEFrWWXRJhAlGLIy9UPdGsA8BQAADF+M4c1K19xrowZ1257KfO++2c8ZAAAAAAAAAAAAAAAAAAAAAAAAAAAAAAAAAAAAAAAAAAAAAAAAAAAAAKAv/j81WLK3DxYeaQAAAABJRU5ErkJggg==;" vertex="1" parent="1">
          <mxGeometry x="10" y="60" width="535.38" height="320" as="geometry" />
        </mxCell>
        <mxCell id="0yNXBMV2SDZQ13glMdR7-6" value="" style="edgeStyle=orthogonalEdgeStyle;rounded=0;orthogonalLoop=1;jettySize=auto;html=1;" edge="1" parent="1" source="0yNXBMV2SDZQ13glMdR7-3" target="0yNXBMV2SDZQ13glMdR7-5">
          <mxGeometry relative="1" as="geometry" />
        </mxCell>
        <mxCell id="0yNXBMV2SDZQ13glMdR7-3" value="使用Eigen::SparseMatrix创建稀疏矩阵，分别为矩阵P和矩阵A" style="whiteSpace=wrap;html=1;rounded=0;" vertex="1" parent="1">
          <mxGeometry x="630" y="190" width="120" height="60" as="geometry" />
        </mxCell>
        <mxCell id="0yNXBMV2SDZQ13glMdR7-8" value="" style="edgeStyle=orthogonalEdgeStyle;rounded=0;orthogonalLoop=1;jettySize=auto;html=1;" edge="1" parent="1" source="0yNXBMV2SDZQ13glMdR7-5" target="0yNXBMV2SDZQ13glMdR7-7">
          <mxGeometry relative="1" as="geometry" />
        </mxCell>
        <mxCell id="0yNXBMV2SDZQ13glMdR7-5" value="使用Eigen::VectorXd创建列向量，分别为向量Q、L、U" style="whiteSpace=wrap;html=1;rounded=0;" vertex="1" parent="1">
          <mxGeometry x="630" y="330" width="120" height="60" as="geometry" />
        </mxCell>
        <mxCell id="0yNXBMV2SDZQ13glMdR7-10" value="" style="edgeStyle=orthogonalEdgeStyle;rounded=0;orthogonalLoop=1;jettySize=auto;html=1;" edge="1" parent="1" source="0yNXBMV2SDZQ13glMdR7-7" target="0yNXBMV2SDZQ13glMdR7-9">
          <mxGeometry relative="1" as="geometry" />
        </mxCell>
        <mxCell id="0yNXBMV2SDZQ13glMdR7-7" value="使用.insert方向往矩阵P、A中插入元素，使用&amp;lt;&amp;lt;方向往向量Q、L、U中插入元素" style="whiteSpace=wrap;html=1;rounded=0;" vertex="1" parent="1">
          <mxGeometry x="630" y="470" width="120" height="60" as="geometry" />
        </mxCell>
        <mxCell id="0yNXBMV2SDZQ13glMdR7-14" value="" style="edgeStyle=orthogonalEdgeStyle;rounded=0;orthogonalLoop=1;jettySize=auto;html=1;" edge="1" parent="1" source="0yNXBMV2SDZQ13glMdR7-9" target="0yNXBMV2SDZQ13glMdR7-13">
          <mxGeometry relative="1" as="geometry" />
        </mxCell>
        <mxCell id="0yNXBMV2SDZQ13glMdR7-9" value="实例化求解器OsqpEigen::Solver，设置求解器的选项、变量数和约束数，设置求解器中的矩阵和向量，然后初始化求解器" style="whiteSpace=wrap;html=1;rounded=0;" vertex="1" parent="1">
          <mxGeometry x="592.5" y="610" width="195" height="60" as="geometry" />
        </mxCell>
        <mxCell id="0yNXBMV2SDZQ13glMdR7-16" value="" style="edgeStyle=orthogonalEdgeStyle;rounded=0;orthogonalLoop=1;jettySize=auto;html=1;" edge="1" parent="1" source="0yNXBMV2SDZQ13glMdR7-13" target="0yNXBMV2SDZQ13glMdR7-15">
          <mxGeometry relative="1" as="geometry" />
        </mxCell>
        <mxCell id="0yNXBMV2SDZQ13glMdR7-13" value="调用.solve()方向求解QP问题，调用.getSolution()方法拿到求解结果" style="whiteSpace=wrap;html=1;rounded=0;" vertex="1" parent="1">
          <mxGeometry x="630" y="750" width="120" height="60" as="geometry" />
        </mxCell>
        <mxCell id="0yNXBMV2SDZQ13glMdR7-15" value="结束" style="whiteSpace=wrap;html=1;rounded=1;" vertex="1" parent="1">
          <mxGeometry x="630" y="890" width="120" height="60" as="geometry" />
        </mxCell>
        <mxCell id="0yNXBMV2SDZQ13glMdR7-17" value="https://github.com/CHH3213/testCPP" style="text;html=1;align=center;verticalAlign=middle;resizable=0;points=[];autosize=1;strokeColor=none;fillColor=none;" vertex="1" parent="1">
          <mxGeometry x="40" y="8" width="220" height="30" as="geometry" />
        </mxCell>
      </root>
    </mxGraphModel>
  </diagram>
</mxfile>
